<svg width="1680" height="892" xmlns="http://www.w3.org/2000/svg"><g><path d="M-46.69824085362589,-56.15502106135662L-97.73236745336567,260.59408003876774L-53.442376800284094,21.493647644964227Z" fill="#f9fef3" stroke="#f9fef3" fill-opacity="1" stroke-opacity="1"/><path d="M-46.69824085362589,-56.15502106135662L-53.442376800284094,21.493647644964227L31.29910489583765,-110.26118297372531Z" fill="#f9fdf5" stroke="#f9fdf5" fill-opacity="1" stroke-opacity="1"/><path d="M31.29910489583765,-110.26118297372531L-53.442376800284094,21.493647644964227L133.27510899881008,107.14025927257681Z" fill="#f5fbf1" stroke="#f5fbf1" fill-opacity="1" stroke-opacity="1"/><path d="M31.29910489583765,-110.26118297372531L133.27510899881008,107.14025927257681L252.5910782660544,-69.01978097993299Z" fill="#eff9eb" stroke="#eff9eb" fill-opacity="1" stroke-opacity="1"/><path d="M31.29910489583765,-110.26118297372531L252.5910782660544,-69.01978097993299L322.17500028081395,-111.68254515901985Z" fill="#ebf7e7" stroke="#ebf7e7" fill-opacity="1" stroke-opacity="1"/><path d="M31.29910489583765,-110.26118297372531L322.17500028081395,-111.68254515901985L1461.3450694224462,-134.10907876906822Z" fill="#d0eddb" stroke="#d0eddb" fill-opacity="1" stroke-opacity="1"/><path d="M252.5910782660544,-69.01978097993299L133.27510899881008,107.14025927257681L254.76796275345623,48.51071517992186Z" fill="#e9f7e4" stroke="#e9f7e4" fill-opacity="1" stroke-opacity="1"/><path d="M252.5910782660544,-69.01978097993299L254.76796275345623,48.51071517992186L322.17500028081395,-111.68254515901985Z" fill="#e6f5e2" stroke="#e6f5e2" fill-opacity="1" stroke-opacity="1"/><path d="M322.17500028081395,-111.68254515901985L254.76796275345623,48.51071517992186L429.16400387567654,133.5516642144773Z" fill="#e1f4df" stroke="#e1f4df" fill-opacity="1" stroke-opacity="1"/><path d="M322.17500028081395,-111.68254515901985L429.16400387567654,133.5516642144773L502.26472801311644,-70.28969270193421Z" fill="#ddf2de" stroke="#ddf2de" fill-opacity="1" stroke-opacity="1"/><path d="M322.17500028081395,-111.68254515901985L502.26472801311644,-70.28969270193421L827.0327869809153,-110.47565474559116Z" fill="#d4eedb" stroke="#d4eedb" fill-opacity="1" stroke-opacity="1"/><path d="M322.17500028081395,-111.68254515901985L827.0327869809153,-110.47565474559116L1010.5474049306288,-116.19952453065952Z" fill="#c7e9df" stroke="#c7e9df" fill-opacity="1" stroke-opacity="1"/><path d="M322.17500028081395,-111.68254515901985L1010.5474049306288,-116.19952453065952L1461.3450694224462,-134.10907876906822Z" fill="#b4dfe3" stroke="#b4dfe3" fill-opacity="1" stroke-opacity="1"/><path d="M502.26472801311644,-70.28969270193421L429.16400387567654,133.5516642144773L489.7981920643008,105.32615330114362Z" fill="#d7f0d9" stroke="#d7f0d9" fill-opacity="1" stroke-opacity="1"/><path d="M502.26472801311644,-70.28969270193421L489.7981920643008,105.32615330114362L669.3034398988269,37.56117109003258Z" fill="#d3eed9" stroke="#d3eed9" fill-opacity="1" stroke-opacity="1"/><path d="M502.26472801311644,-70.28969270193421L669.3034398988269,37.56117109003258L716.1049097806966,-38.67278073376532Z" fill="#ceecdc" stroke="#ceecdc" fill-opacity="1" stroke-opacity="1"/><path d="M502.26472801311644,-70.28969270193421L716.1049097806966,-38.67278073376532L827.0327869809153,-110.47565474559116Z" fill="#caebde" stroke="#caebde" fill-opacity="1" stroke-opacity="1"/><path d="M716.1049097806966,-38.67278073376532L669.3034398988269,37.56117109003258L792.9147510537854,19.976356956656844Z" fill="#c6e9de" stroke="#c6e9de" fill-opacity="1" stroke-opacity="1"/><path d="M716.1049097806966,-38.67278073376532L792.9147510537854,19.976356956656844L827.0327869809153,-110.47565474559116Z" fill="#c2e8e0" stroke="#c2e8e0" fill-opacity="1" stroke-opacity="1"/><path d="M827.0327869809153,-110.47565474559116L792.9147510537854,19.976356956656844L1024.9285225016845,18.273472044495044Z" fill="#b9e3e2" stroke="#b9e3e2" fill-opacity="1" stroke-opacity="1"/><path d="M827.0327869809153,-110.47565474559116L1024.9285225016845,18.273472044495044L1010.5474049306288,-116.19952453065952Z" fill="#b2dde3" stroke="#b2dde3" fill-opacity="1" stroke-opacity="1"/><path d="M1010.5474049306288,-116.19952453065952L1024.9285225016845,18.273472044495044L1153.2982594405746,-23.68878713006947Z" fill="#a7d5e4" stroke="#a7d5e4" fill-opacity="1" stroke-opacity="1"/><path d="M1010.5474049306288,-116.19952453065952L1153.2982594405746,-23.68878713006947L1308.7817367030968,-76.1019897053439Z" fill="#9dcde3" stroke="#9dcde3" fill-opacity="1" stroke-opacity="1"/><path d="M1010.5474049306288,-116.19952453065952L1308.7817367030968,-76.1019897053439L1461.3450694224462,-134.10907876906822Z" fill="#92c2dd" stroke="#92c2dd" fill-opacity="1" stroke-opacity="1"/><path d="M1153.2982594405746,-23.68878713006947L1024.9285225016845,18.273472044495044L1072.2439107613723,134.2213684424267Z" fill="#a3d3e1" stroke="#a3d3e1" fill-opacity="1" stroke-opacity="1"/><path d="M1153.2982594405746,-23.68878713006947L1072.2439107613723,134.2213684424267L1328.7008111886905,64.81236498028031Z" fill="#98cadd" stroke="#98cadd" fill-opacity="1" stroke-opacity="1"/><path d="M1153.2982594405746,-23.68878713006947L1328.7008111886905,64.81236498028031L1308.7817367030968,-76.1019897053439Z" fill="#92c2dd" stroke="#92c2dd" fill-opacity="1" stroke-opacity="1"/><path d="M1308.7817367030968,-76.1019897053439L1328.7008111886905,64.81236498028031L1370.979409659455,69.3913290324823Z" fill="#89bad8" stroke="#89bad8" fill-opacity="1" stroke-opacity="1"/><path d="M1308.7817367030968,-76.1019897053439L1370.979409659455,69.3913290324823L1461.3450694224462,-134.10907876906822Z" fill="#86b6d7" stroke="#86b6d7" fill-opacity="1" stroke-opacity="1"/><path d="M1461.3450694224462,-134.10907876906822L1370.979409659455,69.3913290324823L1593.429896571657,-108.2981136597792Z" fill="#80acd2" stroke="#80acd2" fill-opacity="1" stroke-opacity="1"/><path d="M1461.3450694224462,-134.10907876906822L1593.429896571657,-108.2981136597792L1921.144413228357,-125.31235415821422Z" fill="#8099c8" stroke="#8099c8" fill-opacity="1" stroke-opacity="1"/><path d="M1593.429896571657,-108.2981136597792L1370.979409659455,69.3913290324823L1607.9762096533336,127.74182177824179Z" fill="#7fa7cd" stroke="#7fa7cd" fill-opacity="1" stroke-opacity="1"/><path d="M1593.429896571657,-108.2981136597792L1607.9762096533336,127.74182177824179L1690.801798093863,-62.66374992730479Z" fill="#809cc9" stroke="#809cc9" fill-opacity="1" stroke-opacity="1"/><path d="M1593.429896571657,-108.2981136597792L1690.801798093863,-62.66374992730479L1921.144413228357,-125.31235415821422Z" fill="#8091c4" stroke="#8091c4" fill-opacity="1" stroke-opacity="1"/><path d="M1690.801798093863,-62.66374992730479L1607.9762096533336,127.74182177824179L1737.031096528399,112.50295692825269Z" fill="#7d97c3" stroke="#7d97c3" fill-opacity="1" stroke-opacity="1"/><path d="M1690.801798093863,-62.66374992730479L1737.031096528399,112.50295692825269L1877.7359029941908,92.50943059903096Z" fill="#7e8ebf" stroke="#7e8ebf" fill-opacity="1" stroke-opacity="1"/><path d="M1690.801798093863,-62.66374992730479L1877.7359029941908,92.50943059903096L1921.144413228357,-125.31235415821422Z" fill="#8087bf" stroke="#8087bf" fill-opacity="1" stroke-opacity="1"/><path d="M1921.144413228357,-125.31235415821422L1877.7359029941908,92.50943059903096L1887.7297840855376,179.69625509288238Z" fill="#7e80b8" stroke="#7e80b8" fill-opacity="1" stroke-opacity="1"/><path d="M1921.144413228357,-125.31235415821422L1887.7297840855376,179.69625509288238L1923.3657956860325,357.0999025484349Z" fill="#7a80b1" stroke="#7a80b1" fill-opacity="1" stroke-opacity="1"/><path d="M-53.442376800284094,21.493647644964227L-97.73236745336567,260.59408003876774L34.59512439420902,215.3406412844098Z" fill="#f2fdeb" stroke="#f2fdeb" fill-opacity="1" stroke-opacity="1"/><path d="M-53.442376800284094,21.493647644964227L34.59512439420902,215.3406412844098L133.27510899881008,107.14025927257681Z" fill="#f1fbea" stroke="#f1fbea" fill-opacity="1" stroke-opacity="1"/><path d="M133.27510899881008,107.14025927257681L34.59512439420902,215.3406412844098L183.21731464135487,240.8726251063807Z" fill="#e5f9e0" stroke="#e5f9e0" fill-opacity="1" stroke-opacity="1"/><path d="M133.27510899881008,107.14025927257681L183.21731464135487,240.8726251063807L254.76796275345623,48.51071517992186Z" fill="#e6f7df" stroke="#e6f7df" fill-opacity="1" stroke-opacity="1"/><path d="M254.76796275345623,48.51071517992186L183.21731464135487,240.8726251063807L429.16400387567654,133.5516642144773Z" fill="#e0f5d8" stroke="#e0f5d8" fill-opacity="1" stroke-opacity="1"/><path d="M429.16400387567654,133.5516642144773L183.21731464135487,240.8726251063807L426.3905251655357,246.03577259503277Z" fill="#d3f4d3" stroke="#d3f4d3" fill-opacity="1" stroke-opacity="1"/><path d="M429.16400387567654,133.5516642144773L426.3905251655357,246.03577259503277L487.55190786046916,182.674978120488Z" fill="#cff1d1" stroke="#cff1d1" fill-opacity="1" stroke-opacity="1"/><path d="M429.16400387567654,133.5516642144773L487.55190786046916,182.674978120488L489.7981920643008,105.32615330114362Z" fill="#d4f1d3" stroke="#d4f1d3" fill-opacity="1" stroke-opacity="1"/><path d="M489.7981920643008,105.32615330114362L487.55190786046916,182.674978120488L669.3034398988269,37.56117109003258Z" fill="#d0efd3" stroke="#d0efd3" fill-opacity="1" stroke-opacity="1"/><path d="M669.3034398988269,37.56117109003258L487.55190786046916,182.674978120488L713.6827647925696,244.89505879330412Z" fill="#c8ecd1" stroke="#c8ecd1" fill-opacity="1" stroke-opacity="1"/><path d="M669.3034398988269,37.56117109003258L713.6827647925696,244.89505879330412L792.9147510537854,19.976356956656844Z" fill="#c2e9d8" stroke="#c2e9d8" fill-opacity="1" stroke-opacity="1"/><path d="M792.9147510537854,19.976356956656844L713.6827647925696,244.89505879330412L831.8894367788599,214.3769915595062Z" fill="#bbe8d6" stroke="#bbe8d6" fill-opacity="1" stroke-opacity="1"/><path d="M792.9147510537854,19.976356956656844L831.8894367788599,214.3769915595062L1024.9285225016845,18.273472044495044Z" fill="#b5e3dd" stroke="#b5e3dd" fill-opacity="1" stroke-opacity="1"/><path d="M1024.9285225016845,18.273472044495044L831.8894367788599,214.3769915595062L990.0969623353205,222.5205929762267Z" fill="#acded9" stroke="#acded9" fill-opacity="1" stroke-opacity="1"/><path d="M1024.9285225016845,18.273472044495044L990.0969623353205,222.5205929762267L1072.2439107613723,134.2213684424267Z" fill="#a5d8db" stroke="#a5d8db" fill-opacity="1" stroke-opacity="1"/><path d="M1072.2439107613723,134.2213684424267L990.0969623353205,222.5205929762267L1066.4127216136292,194.29939535443611Z" fill="#9ed7d8" stroke="#9ed7d8" fill-opacity="1" stroke-opacity="1"/><path d="M1072.2439107613723,134.2213684424267L1066.4127216136292,194.29939535443611L1267.759544359257,251.51729874352225Z" fill="#93cfd7" stroke="#93cfd7" fill-opacity="1" stroke-opacity="1"/><path d="M1072.2439107613723,134.2213684424267L1267.759544359257,251.51729874352225L1328.7008111886905,64.81236498028031Z" fill="#90c6d5" stroke="#90c6d5" fill-opacity="1" stroke-opacity="1"/><path d="M1328.7008111886905,64.81236498028031L1267.759544359257,251.51729874352225L1400.5114400319428,199.29781143129742Z" fill="#81bbce" stroke="#81bbce" fill-opacity="1" stroke-opacity="1"/><path d="M1328.7008111886905,64.81236498028031L1400.5114400319428,199.29781143129742L1370.979409659455,69.3913290324823Z" fill="#83b7d0" stroke="#83b7d0" fill-opacity="1" stroke-opacity="1"/><path d="M1370.979409659455,69.3913290324823L1400.5114400319428,199.29781143129742L1607.9762096533336,127.74182177824179Z" fill="#7aaeca" stroke="#7aaeca" fill-opacity="1" stroke-opacity="1"/><path d="M1607.9762096533336,127.74182177824179L1400.5114400319428,199.29781143129742L1562.1759751912198,278.1386632520444Z" fill="#72a7c2" stroke="#72a7c2" fill-opacity="1" stroke-opacity="1"/><path d="M1607.9762096533336,127.74182177824179L1562.1759751912198,278.1386632520444L1671.1164020399783,208.12599056966764Z" fill="#729ebd" stroke="#729ebd" fill-opacity="1" stroke-opacity="1"/><path d="M1607.9762096533336,127.74182177824179L1671.1164020399783,208.12599056966764L1737.031096528399,112.50295692825269Z" fill="#7a98bd" stroke="#7a98bd" fill-opacity="1" stroke-opacity="1"/><path d="M1737.031096528399,112.50295692825269L1671.1164020399783,208.12599056966764L1887.7297840855376,179.69625509288238Z" fill="#778eb7" stroke="#778eb7" fill-opacity="1" stroke-opacity="1"/><path d="M1737.031096528399,112.50295692825269L1887.7297840855376,179.69625509288238L1877.7359029941908,92.50943059903096Z" fill="#7b87b6" stroke="#7b87b6" fill-opacity="1" stroke-opacity="1"/><path d="M-97.73236745336567,260.59408003876774L-105.58214410758815,704.3183615680006L-70.82499103715433,465.06545213864774Z" fill="#c1f4ef" stroke="#c1f4ef" fill-opacity="1" stroke-opacity="1"/><path d="M-97.73236745336567,260.59408003876774L-70.82499103715433,465.06545213864774L-48.394298013292556,378.8092904749277Z" fill="#d4fbe9" stroke="#d4fbe9" fill-opacity="1" stroke-opacity="1"/><path d="M-97.73236745336567,260.59408003876774L-48.394298013292556,378.8092904749277L34.59512439420902,215.3406412844098Z" fill="#e1fde4" stroke="#e1fde4" fill-opacity="1" stroke-opacity="1"/><path d="M34.59512439420902,215.3406412844098L-48.394298013292556,378.8092904749277L120.56924837115803,420.0756126659872Z" fill="#d2fae1" stroke="#d2fae1" fill-opacity="1" stroke-opacity="1"/><path d="M34.59512439420902,215.3406412844098L120.56924837115803,420.0756126659872L183.21731464135487,240.8726251063807Z" fill="#d6f9da" stroke="#d6f9da" fill-opacity="1" stroke-opacity="1"/><path d="M183.21731464135487,240.8726251063807L120.56924837115803,420.0756126659872L184.12329945743346,390.16398315723086Z" fill="#c8f6d9" stroke="#c8f6d9" fill-opacity="1" stroke-opacity="1"/><path d="M183.21731464135487,240.8726251063807L184.12329945743346,390.16398315723086L419.9840339579665,390.9744400210262Z" fill="#c4f4d2" stroke="#c4f4d2" fill-opacity="1" stroke-opacity="1"/><path d="M183.21731464135487,240.8726251063807L419.9840339579665,390.9744400210262L426.3905251655357,246.03577259503277Z" fill="#c7f4cd" stroke="#c7f4cd" fill-opacity="1" stroke-opacity="1"/><path d="M426.3905251655357,246.03577259503277L419.9840339579665,390.9744400210262L491.8615477542217,427.24622441421536Z" fill="#b6efce" stroke="#b6efce" fill-opacity="1" stroke-opacity="1"/><path d="M426.3905251655357,246.03577259503277L491.8615477542217,427.24622441421536L487.55190786046916,182.674978120488Z" fill="#c0f1ca" stroke="#c0f1ca" fill-opacity="1" stroke-opacity="1"/><path d="M487.55190786046916,182.674978120488L491.8615477542217,427.24622441421536L713.6827647925696,244.89505879330412Z" fill="#baeec8" stroke="#baeec8" fill-opacity="1" stroke-opacity="1"/><path d="M713.6827647925696,244.89505879330412L491.8615477542217,427.24622441421536L702.4600168271563,400.5025075594215Z" fill="#a8e9cc" stroke="#a8e9cc" fill-opacity="1" stroke-opacity="1"/><path d="M713.6827647925696,244.89505879330412L702.4600168271563,400.5025075594215L850.3201310515591,378.9131322251384Z" fill="#a1e6ce" stroke="#a1e6ce" fill-opacity="1" stroke-opacity="1"/><path d="M713.6827647925696,244.89505879330412L850.3201310515591,378.9131322251384L831.8894367788599,214.3769915595062Z" fill="#a8e7ce" stroke="#a8e7ce" fill-opacity="1" stroke-opacity="1"/><path d="M831.8894367788599,214.3769915595062L850.3201310515591,378.9131322251384L934.4364524437078,323.55611905093724Z" fill="#9de3cf" stroke="#9de3cf" fill-opacity="1" stroke-opacity="1"/><path d="M831.8894367788599,214.3769915595062L934.4364524437078,323.55611905093724L990.0969623353205,222.5205929762267Z" fill="#a0e0d2" stroke="#a0e0d2" fill-opacity="1" stroke-opacity="1"/><path d="M990.0969623353205,222.5205929762267L934.4364524437078,323.55611905093724L1107.7647873875858,422.8267532986981Z" fill="#8cd8d2" stroke="#8cd8d2" fill-opacity="1" stroke-opacity="1"/><path d="M990.0969623353205,222.5205929762267L1107.7647873875858,422.8267532986981L1066.4127216136292,194.29939535443611Z" fill="#8fd6d2" stroke="#8fd6d2" fill-opacity="1" stroke-opacity="1"/><path d="M1066.4127216136292,194.29939535443611L1107.7647873875858,422.8267532986981L1230.3756279850322,379.9034365578244Z" fill="#7eced2" stroke="#7eced2" fill-opacity="1" stroke-opacity="1"/><path d="M1066.4127216136292,194.29939535443611L1230.3756279850322,379.9034365578244L1267.759544359257,251.51729874352225Z" fill="#82cacf" stroke="#82cacf" fill-opacity="1" stroke-opacity="1"/><path d="M1267.759544359257,251.51729874352225L1230.3756279850322,379.9034365578244L1425.070155929659,379.1301680880811Z" fill="#6bbcca" stroke="#6bbcca" fill-opacity="1" stroke-opacity="1"/><path d="M1267.759544359257,251.51729874352225L1425.070155929659,379.1301680880811L1400.5114400319428,199.29781143129742Z" fill="#6fb7c6" stroke="#6fb7c6" fill-opacity="1" stroke-opacity="1"/><path d="M1400.5114400319428,199.29781143129742L1425.070155929659,379.1301680880811L1562.1759751912198,278.1386632520444Z" fill="#66adc0" stroke="#66adc0" fill-opacity="1" stroke-opacity="1"/><path d="M1562.1759751912198,278.1386632520444L1425.070155929659,379.1301680880811L1632.09099076817,376.1903171057543Z" fill="#5ca3be" stroke="#5ca3be" fill-opacity="1" stroke-opacity="1"/><path d="M1562.1759751912198,278.1386632520444L1632.09099076817,376.1903171057543L1671.1164020399783,208.12599056966764Z" fill="#669db7" stroke="#669db7" fill-opacity="1" stroke-opacity="1"/><path d="M1671.1164020399783,208.12599056966764L1632.09099076817,376.1903171057543L1693.842002242707,418.6734297858965Z" fill="#5e97b6" stroke="#5e97b6" fill-opacity="1" stroke-opacity="1"/><path d="M1671.1164020399783,208.12599056966764L1693.842002242707,418.6734297858965L1923.3657956860325,357.0999025484349Z" fill="#5f8db1" stroke="#5f8db1" fill-opacity="1" stroke-opacity="1"/><path d="M1671.1164020399783,208.12599056966764L1923.3657956860325,357.0999025484349L1887.7297840855376,179.69625509288238Z" fill="#6b87ae" stroke="#6b87ae" fill-opacity="1" stroke-opacity="1"/><path d="M-48.394298013292556,378.8092904749277L-70.82499103715433,465.06545213864774L40.73013461827336,508.67248596452043Z" fill="#c2f6eb" stroke="#c2f6eb" fill-opacity="1" stroke-opacity="1"/><path d="M-48.394298013292556,378.8092904749277L40.73013461827336,508.67248596452043L120.56924837115803,420.0756126659872Z" fill="#c1f6e6" stroke="#c1f6e6" fill-opacity="1" stroke-opacity="1"/><path d="M120.56924837115803,420.0756126659872L40.73013461827336,508.67248596452043L259.61332140494807,571.9763990787197Z" fill="#adeae2" stroke="#adeae2" fill-opacity="1" stroke-opacity="1"/><path d="M120.56924837115803,420.0756126659872L259.61332140494807,571.9763990787197L184.12329945743346,390.16398315723086Z" fill="#b2efde" stroke="#b2efde" fill-opacity="1" stroke-opacity="1"/><path d="M184.12329945743346,390.16398315723086L259.61332140494807,571.9763990787197L376.85026121629994,543.3157155769406Z" fill="#a4e6da" stroke="#a4e6da" fill-opacity="1" stroke-opacity="1"/><path d="M184.12329945743346,390.16398315723086L376.85026121629994,543.3157155769406L419.9840339579665,390.9744400210262Z" fill="#aeeed6" stroke="#aeeed6" fill-opacity="1" stroke-opacity="1"/><path d="M419.9840339579665,390.9744400210262L376.85026121629994,543.3157155769406L491.8615477542217,427.24622441421536Z" fill="#a4ead3" stroke="#a4ead3" fill-opacity="1" stroke-opacity="1"/><path d="M491.8615477542217,427.24622441421536L376.85026121629994,543.3157155769406L571.8418650243348,578.0136004666441Z" fill="#93ded4" stroke="#93ded4" fill-opacity="1" stroke-opacity="1"/><path d="M491.8615477542217,427.24622441421536L571.8418650243348,578.0136004666441L677.3199545635595,481.3085918410287Z" fill="#91dfd1" stroke="#91dfd1" fill-opacity="1" stroke-opacity="1"/><path d="M491.8615477542217,427.24622441421536L677.3199545635595,481.3085918410287L702.4600168271563,400.5025075594215Z" fill="#9ae7d1" stroke="#9ae7d1" fill-opacity="1" stroke-opacity="1"/><path d="M702.4600168271563,400.5025075594215L677.3199545635595,481.3085918410287L831.3474655136389,521.1423974978973Z" fill="#8bdfd5" stroke="#8bdfd5" fill-opacity="1" stroke-opacity="1"/><path d="M702.4600168271563,400.5025075594215L831.3474655136389,521.1423974978973L850.3201310515591,378.9131322251384Z" fill="#8de2d5" stroke="#8de2d5" fill-opacity="1" stroke-opacity="1"/><path d="M850.3201310515591,378.9131322251384L831.3474655136389,521.1423974978973L984.7296791010627,567.6261742211136Z" fill="#79d5d9" stroke="#79d5d9" fill-opacity="1" stroke-opacity="1"/><path d="M850.3201310515591,378.9131322251384L984.7296791010627,567.6261742211136L934.4364524437078,323.55611905093724Z" fill="#83dbd7" stroke="#83dbd7" fill-opacity="1" stroke-opacity="1"/><path d="M934.4364524437078,323.55611905093724L984.7296791010627,567.6261742211136L1072.7497630355158,493.0218159808383Z" fill="#74d1d9" stroke="#74d1d9" fill-opacity="1" stroke-opacity="1"/><path d="M934.4364524437078,323.55611905093724L1072.7497630355158,493.0218159808383L1107.7647873875858,422.8267532986981Z" fill="#79d2d7" stroke="#79d2d7" fill-opacity="1" stroke-opacity="1"/><path d="M1107.7647873875858,422.8267532986981L1072.7497630355158,493.0218159808383L1265.725220510665,565.685326824646Z" fill="#5dc0da" stroke="#5dc0da" fill-opacity="1" stroke-opacity="1"/><path d="M1107.7647873875858,422.8267532986981L1265.725220510665,565.685326824646L1230.3756279850322,379.9034365578244Z" fill="#60c1d6" stroke="#60c1d6" fill-opacity="1" stroke-opacity="1"/><path d="M1230.3756279850322,379.9034365578244L1265.725220510665,565.685326824646L1425.070155929659,379.1301680880811Z" fill="#59b7d0" stroke="#59b7d0" fill-opacity="1" stroke-opacity="1"/><path d="M1425.070155929659,379.1301680880811L1265.725220510665,565.685326824646L1394.7127445683684,570.7733629470391Z" fill="#44a8cf" stroke="#44a8cf" fill-opacity="1" stroke-opacity="1"/><path d="M1425.070155929659,379.1301680880811L1394.7127445683684,570.7733629470391L1607.3533884311973,471.1352787428543Z" fill="#44a1c8" stroke="#44a1c8" fill-opacity="1" stroke-opacity="1"/><path d="M1425.070155929659,379.1301680880811L1607.3533884311973,471.1352787428543L1632.09099076817,376.1903171057543Z" fill="#509fc0" stroke="#509fc0" fill-opacity="1" stroke-opacity="1"/><path d="M1632.09099076817,376.1903171057543L1607.3533884311973,471.1352787428543L1693.842002242707,418.6734297858965Z" fill="#4e95bd" stroke="#4e95bd" fill-opacity="1" stroke-opacity="1"/><path d="M1693.842002242707,418.6734297858965L1607.3533884311973,471.1352787428543L1724.3087784153697,499.5996921158851Z" fill="#468ebd" stroke="#468ebd" fill-opacity="1" stroke-opacity="1"/><path d="M1693.842002242707,418.6734297858965L1724.3087784153697,499.5996921158851L1923.3657956860325,357.0999025484349Z" fill="#4d87b5" stroke="#4d87b5" fill-opacity="1" stroke-opacity="1"/><path d="M1923.3657956860325,357.0999025484349L1724.3087784153697,499.5996921158851L1908.328321648604,509.09024314041415Z" fill="#487db3" stroke="#487db3" fill-opacity="1" stroke-opacity="1"/><path d="M1923.3657956860325,357.0999025484349L1908.328321648604,509.09024314041415L1925.2632568774761,962.7650722155973Z" fill="#265db1" stroke="#265db1" fill-opacity="1" stroke-opacity="1"/><path d="M-70.82499103715433,465.06545213864774L-105.58214410758815,704.3183615680006L38.93791690335006,627.2247126145857Z" fill="#a3ddef" stroke="#a3ddef" fill-opacity="1" stroke-opacity="1"/><path d="M-70.82499103715433,465.06545213864774L38.93791690335006,627.2247126145857L40.73013461827336,508.67248596452043Z" fill="#aee8eb" stroke="#aee8eb" fill-opacity="1" stroke-opacity="1"/><path d="M40.73013461827336,508.67248596452043L38.93791690335006,627.2247126145857L185.20582059467418,661.2742284084067Z" fill="#9adae7" stroke="#9adae7" fill-opacity="1" stroke-opacity="1"/><path d="M40.73013461827336,508.67248596452043L185.20582059467418,661.2742284084067L259.61332140494807,571.9763990787197Z" fill="#99dce2" stroke="#99dce2" fill-opacity="1" stroke-opacity="1"/><path d="M259.61332140494807,571.9763990787197L185.20582059467418,661.2742284084067L340.1457445181752,654.9255381071878Z" fill="#8acfd8" stroke="#8acfd8" fill-opacity="1" stroke-opacity="1"/><path d="M259.61332140494807,571.9763990787197L340.1457445181752,654.9255381071878L376.85026121629994,543.3157155769406Z" fill="#8cd6da" stroke="#8cd6da" fill-opacity="1" stroke-opacity="1"/><path d="M376.85026121629994,543.3157155769406L340.1457445181752,654.9255381071878L536.9361303922129,674.2426336789205Z" fill="#81ccd4" stroke="#81ccd4" fill-opacity="1" stroke-opacity="1"/><path d="M376.85026121629994,543.3157155769406L536.9361303922129,674.2426336789205L571.8418650243348,578.0136004666441Z" fill="#80d0d5" stroke="#80d0d5" fill-opacity="1" stroke-opacity="1"/><path d="M571.8418650243348,578.0136004666441L536.9361303922129,674.2426336789205L698.0298774472027,635.2183509206444Z" fill="#74c6d0" stroke="#74c6d0" fill-opacity="1" stroke-opacity="1"/><path d="M571.8418650243348,578.0136004666441L698.0298774472027,635.2183509206444L677.3199545635595,481.3085918410287Z" fill="#7cd2d5" stroke="#7cd2d5" fill-opacity="1" stroke-opacity="1"/><path d="M677.3199545635595,481.3085918410287L698.0298774472027,635.2183509206444L831.3474655136389,521.1423974978973Z" fill="#79d2d7" stroke="#79d2d7" fill-opacity="1" stroke-opacity="1"/><path d="M831.3474655136389,521.1423974978973L698.0298774472027,635.2183509206444L826.3308094576535,628.8338094020789Z" fill="#6ac8d9" stroke="#6ac8d9" fill-opacity="1" stroke-opacity="1"/><path d="M831.3474655136389,521.1423974978973L826.3308094576535,628.8338094020789L984.7296791010627,567.6261742211136Z" fill="#67c7db" stroke="#67c7db" fill-opacity="1" stroke-opacity="1"/><path d="M984.7296791010627,567.6261742211136L826.3308094576535,628.8338094020789L984.0358515570032,631.4592252721633Z" fill="#5bbcda" stroke="#5bbcda" fill-opacity="1" stroke-opacity="1"/><path d="M984.7296791010627,567.6261742211136L984.0358515570032,631.4592252721633L1072.7497630355158,493.0218159808383Z" fill="#5bbfdc" stroke="#5bbfdc" fill-opacity="1" stroke-opacity="1"/><path d="M1072.7497630355158,493.0218159808383L984.0358515570032,631.4592252721633L1112.4070509365363,729.557451669702Z" fill="#4db1da" stroke="#4db1da" fill-opacity="1" stroke-opacity="1"/><path d="M1072.7497630355158,493.0218159808383L1112.4070509365363,729.557451669702L1265.725220510665,565.685326824646Z" fill="#47aedc" stroke="#47aedc" fill-opacity="1" stroke-opacity="1"/><path d="M1265.725220510665,565.685326824646L1112.4070509365363,729.557451669702L1274.6070697523478,624.8060581576278Z" fill="#389dd3" stroke="#389dd3" fill-opacity="1" stroke-opacity="1"/><path d="M1265.725220510665,565.685326824646L1274.6070697523478,624.8060581576278L1394.7127445683684,570.7733629470391Z" fill="#379fd3" stroke="#379fd3" fill-opacity="1" stroke-opacity="1"/><path d="M1394.7127445683684,570.7733629470391L1274.6070697523478,624.8060581576278L1480.176956410541,692.1048934241865Z" fill="#298ecc" stroke="#298ecc" fill-opacity="1" stroke-opacity="1"/><path d="M1394.7127445683684,570.7733629470391L1480.176956410541,692.1048934241865L1595.5917386815538,651.2574723506686Z" fill="#2281c4" stroke="#2281c4" fill-opacity="1" stroke-opacity="1"/><path d="M1394.7127445683684,570.7733629470391L1595.5917386815538,651.2574723506686L1607.3533884311973,471.1352787428543Z" fill="#2f8cc7" stroke="#2f8cc7" fill-opacity="1" stroke-opacity="1"/><path d="M1607.3533884311973,471.1352787428543L1595.5917386815538,651.2574723506686L1724.3087784153697,499.5996921158851Z" fill="#3485c0" stroke="#3485c0" fill-opacity="1" stroke-opacity="1"/><path d="M1724.3087784153697,499.5996921158851L1595.5917386815538,651.2574723506686L1721.808763413852,650.554575959983Z" fill="#2776bf" stroke="#2776bf" fill-opacity="1" stroke-opacity="1"/><path d="M1724.3087784153697,499.5996921158851L1721.808763413852,650.554575959983L1857.4115171998626,638.5705080063249Z" fill="#286ebb" stroke="#286ebb" fill-opacity="1" stroke-opacity="1"/><path d="M1724.3087784153697,499.5996921158851L1857.4115171998626,638.5705080063249L1908.328321648604,509.09024314041415Z" fill="#3370b7" stroke="#3370b7" fill-opacity="1" stroke-opacity="1"/><path d="M1908.328321648604,509.09024314041415L1857.4115171998626,638.5705080063249L1925.2632568774761,962.7650722155973Z" fill="#1848a7" stroke="#1848a7" fill-opacity="1" stroke-opacity="1"/><path d="M-105.58214410758815,704.3183615680006L-56.68630488983844,983.5839357678794L-25.191062979709002,855.1051904096561Z" fill="#7ea4d2" stroke="#7ea4d2" fill-opacity="1" stroke-opacity="1"/><path d="M-105.58214410758815,704.3183615680006L-25.191062979709002,855.1051904096561L96.31287760077731,803.6418530724735Z" fill="#84b1d6" stroke="#84b1d6" fill-opacity="1" stroke-opacity="1"/><path d="M-105.58214410758815,704.3183615680006L96.31287760077731,803.6418530724735L38.93791690335006,627.2247126145857Z" fill="#8ec2de" stroke="#8ec2de" fill-opacity="1" stroke-opacity="1"/><path d="M38.93791690335006,627.2247126145857L96.31287760077731,803.6418530724735L185.20582059467418,661.2742284084067Z" fill="#8ac3da" stroke="#8ac3da" fill-opacity="1" stroke-opacity="1"/><path d="M185.20582059467418,661.2742284084067L96.31287760077731,803.6418530724735L265.4953300837835,880.5890651733105Z" fill="#78adcb" stroke="#78adcb" fill-opacity="1" stroke-opacity="1"/><path d="M185.20582059467418,661.2742284084067L265.4953300837835,880.5890651733105L315.1081737269869,839.9607598830295Z" fill="#72a9c5" stroke="#72a9c5" fill-opacity="1" stroke-opacity="1"/><path d="M185.20582059467418,661.2742284084067L315.1081737269869,839.9607598830295L340.1457445181752,654.9255381071878Z" fill="#7bb9cc" stroke="#7bb9cc" fill-opacity="1" stroke-opacity="1"/><path d="M340.1457445181752,654.9255381071878L315.1081737269869,839.9607598830295L536.9361303922129,674.2426336789205Z" fill="#73b5c8" stroke="#73b5c8" fill-opacity="1" stroke-opacity="1"/><path d="M536.9361303922129,674.2426336789205L315.1081737269869,839.9607598830295L583.4926693000027,869.4170172005036Z" fill="#63a3be" stroke="#63a3be" fill-opacity="1" stroke-opacity="1"/><path d="M536.9361303922129,674.2426336789205L583.4926693000027,869.4170172005036L623.6493384100382,832.5152122031502Z" fill="#5da1bc" stroke="#5da1bc" fill-opacity="1" stroke-opacity="1"/><path d="M536.9361303922129,674.2426336789205L623.6493384100382,832.5152122031502L698.0298774472027,635.2183509206444Z" fill="#65b2c6" stroke="#65b2c6" fill-opacity="1" stroke-opacity="1"/><path d="M698.0298774472027,635.2183509206444L623.6493384100382,832.5152122031502L799.1924717092056,814.7541524247832Z" fill="#57a4c3" stroke="#57a4c3" fill-opacity="1" stroke-opacity="1"/><path d="M698.0298774472027,635.2183509206444L799.1924717092056,814.7541524247832L826.3308094576535,628.8338094020789Z" fill="#5cb2cd" stroke="#5cb2cd" fill-opacity="1" stroke-opacity="1"/><path d="M826.3308094576535,628.8338094020789L799.1924717092056,814.7541524247832L984.0358515570032,631.4592252721633Z" fill="#54aed0" stroke="#54aed0" fill-opacity="1" stroke-opacity="1"/><path d="M984.0358515570032,631.4592252721633L799.1924717092056,814.7541524247832L974.8630731512685,884.0564044150661Z" fill="#4296c6" stroke="#4296c6" fill-opacity="1" stroke-opacity="1"/><path d="M984.0358515570032,631.4592252721633L974.8630731512685,884.0564044150661L1112.4070509365363,729.557451669702Z" fill="#3c95ca" stroke="#3c95ca" fill-opacity="1" stroke-opacity="1"/><path d="M1112.4070509365363,729.557451669702L974.8630731512685,884.0564044150661L1151.0804711732442,830.6246533061169Z" fill="#2c82c3" stroke="#2c82c3" fill-opacity="1" stroke-opacity="1"/><path d="M1112.4070509365363,729.557451669702L1151.0804711732442,830.6246533061169L1274.6070697523478,624.8060581576278Z" fill="#2f8dcb" stroke="#2f8dcb" fill-opacity="1" stroke-opacity="1"/><path d="M1274.6070697523478,624.8060581576278L1151.0804711732442,830.6246533061169L1216.5123026303386,881.8999811427808Z" fill="#247dc2" stroke="#247dc2" fill-opacity="1" stroke-opacity="1"/><path d="M1274.6070697523478,624.8060581576278L1216.5123026303386,881.8999811427808L1373.5455793772567,855.2919841090134Z" fill="#1b74bd" stroke="#1b74bd" fill-opacity="1" stroke-opacity="1"/><path d="M1274.6070697523478,624.8060581576278L1373.5455793772567,855.2919841090134L1480.176956410541,692.1048934241865Z" fill="#1b79c1" stroke="#1b79c1" fill-opacity="1" stroke-opacity="1"/><path d="M1480.176956410541,692.1048934241865L1373.5455793772567,855.2919841090134L1631.9346599529288,778.4659491693784Z" fill="#0d61b4" stroke="#0d61b4" fill-opacity="1" stroke-opacity="1"/><path d="M1480.176956410541,692.1048934241865L1631.9346599529288,778.4659491693784L1595.5917386815538,651.2574723506686Z" fill="#1769b8" stroke="#1769b8" fill-opacity="1" stroke-opacity="1"/><path d="M1595.5917386815538,651.2574723506686L1631.9346599529288,778.4659491693784L1688.2453335455846,772.659382870102Z" fill="#135cb1" stroke="#135cb1" fill-opacity="1" stroke-opacity="1"/><path d="M1595.5917386815538,651.2574723506686L1688.2453335455846,772.659382870102L1721.808763413852,650.554575959983Z" fill="#1a62b5" stroke="#1a62b5" fill-opacity="1" stroke-opacity="1"/><path d="M1721.808763413852,650.554575959983L1688.2453335455846,772.659382870102L1857.4115171998626,638.5705080063249Z" fill="#1a5ab1" stroke="#1a5ab1" fill-opacity="1" stroke-opacity="1"/><path d="M1857.4115171998626,638.5705080063249L1688.2453335455846,772.659382870102L1864.8446434660289,841.5326031374069Z" fill="#1146a6" stroke="#1146a6" fill-opacity="1" stroke-opacity="1"/><path d="M1857.4115171998626,638.5705080063249L1864.8446434660289,841.5326031374069L1925.2632568774761,962.7650722155973Z" fill="#07309a" stroke="#07309a" fill-opacity="1" stroke-opacity="1"/><path d="M-25.191062979709002,855.1051904096561L-56.68630488983844,983.5839357678794L93.8720606307682,941.7032415798258Z" fill="#7890c5" stroke="#7890c5" fill-opacity="1" stroke-opacity="1"/><path d="M-25.191062979709002,855.1051904096561L93.8720606307682,941.7032415798258L96.31287760077731,803.6418530724735Z" fill="#759dc8" stroke="#759dc8" fill-opacity="1" stroke-opacity="1"/><path d="M96.31287760077731,803.6418530724735L93.8720606307682,941.7032415798258L194.6580655281983,934.8960199010937Z" fill="#7095c1" stroke="#7095c1" fill-opacity="1" stroke-opacity="1"/><path d="M96.31287760077731,803.6418530724735L194.6580655281983,934.8960199010937L265.4953300837835,880.5890651733105Z" fill="#6c98c0" stroke="#6c98c0" fill-opacity="1" stroke-opacity="1"/><path d="M265.4953300837835,880.5890651733105L194.6580655281983,934.8960199010937L341.84531831473004,964.857890306332Z" fill="#678ab4" stroke="#678ab4" fill-opacity="1" stroke-opacity="1"/><path d="M265.4953300837835,880.5890651733105L341.84531831473004,964.857890306332L315.1081737269869,839.9607598830295Z" fill="#6490b6" stroke="#6490b6" fill-opacity="1" stroke-opacity="1"/><path d="M315.1081737269869,839.9607598830295L341.84531831473004,964.857890306332L583.4926693000027,869.4170172005036Z" fill="#5e8eb3" stroke="#5e8eb3" fill-opacity="1" stroke-opacity="1"/><path d="M583.4926693000027,869.4170172005036L341.84531831473004,964.857890306332L562.3032502207598,988.5642611917863Z" fill="#5880ab" stroke="#5880ab" fill-opacity="1" stroke-opacity="1"/><path d="M583.4926693000027,869.4170172005036L562.3032502207598,988.5642611917863L652.9140247955971,996.3856889149383Z" fill="#517ba9" stroke="#517ba9" fill-opacity="1" stroke-opacity="1"/><path d="M583.4926693000027,869.4170172005036L652.9140247955971,996.3856889149383L623.6493384100382,832.5152122031502Z" fill="#4f87b0" stroke="#4f87b0" fill-opacity="1" stroke-opacity="1"/><path d="M623.6493384100382,832.5152122031502L652.9140247955971,996.3856889149383L782.2010723817281,926.8446445345317Z" fill="#4a80b0" stroke="#4a80b0" fill-opacity="1" stroke-opacity="1"/><path d="M623.6493384100382,832.5152122031502L782.2010723817281,926.8446445345317L799.1924717092056,814.7541524247832Z" fill="#468db8" stroke="#468db8" fill-opacity="1" stroke-opacity="1"/><path d="M799.1924717092056,814.7541524247832L782.2010723817281,926.8446445345317L974.8630731512685,884.0564044150661Z" fill="#3d85b9" stroke="#3d85b9" fill-opacity="1" stroke-opacity="1"/><path d="M974.8630731512685,884.0564044150661L782.2010723817281,926.8446445345317L987.4413190102234,941.7670278470621Z" fill="#3676b5" stroke="#3676b5" fill-opacity="1" stroke-opacity="1"/><path d="M974.8630731512685,884.0564044150661L987.4413190102234,941.7670278470621L1150.1353096874618,921.4008510247112Z" fill="#2a6db6" stroke="#2a6db6" fill-opacity="1" stroke-opacity="1"/><path d="M974.8630731512685,884.0564044150661L1150.1353096874618,921.4008510247112L1151.0804711732442,830.6246533061169Z" fill="#2572bb" stroke="#2572bb" fill-opacity="1" stroke-opacity="1"/><path d="M1151.0804711732442,830.6246533061169L1150.1353096874618,921.4008510247112L1216.5123026303386,881.8999811427808Z" fill="#1c6bb8" stroke="#1c6bb8" fill-opacity="1" stroke-opacity="1"/><path d="M1216.5123026303386,881.8999811427808L1150.1353096874618,921.4008510247112L1270.182313891975,944.5979729900394Z" fill="#185eb2" stroke="#185eb2" fill-opacity="1" stroke-opacity="1"/><path d="M1216.5123026303386,881.8999811427808L1270.182313891975,944.5979729900394L1373.5455793772567,855.2919841090134Z" fill="#105bb1" stroke="#105bb1" fill-opacity="1" stroke-opacity="1"/><path d="M1373.5455793772567,855.2919841090134L1270.182313891975,944.5979729900394L1479.3124824921385,965.2812964208341Z" fill="#074ba9" stroke="#074ba9" fill-opacity="1" stroke-opacity="1"/><path d="M1373.5455793772567,855.2919841090134L1479.3124824921385,965.2812964208341L1631.9346599529288,778.4659491693784Z" fill="#004ca9" stroke="#004ca9" fill-opacity="1" stroke-opacity="1"/><path d="M1631.9346599529288,778.4659491693784L1479.3124824921385,965.2812964208341L1521.6009114209849,998.4229537436801Z" fill="#003ca1" stroke="#003ca1" fill-opacity="1" stroke-opacity="1"/><path d="M1631.9346599529288,778.4659491693784L1521.6009114209849,998.4229537436801L1746.9400444483056,976.2868221580366Z" fill="#00329b" stroke="#00329b" fill-opacity="1" stroke-opacity="1"/><path d="M1631.9346599529288,778.4659491693784L1746.9400444483056,976.2868221580366L1688.2453335455846,772.659382870102Z" fill="#033da1" stroke="#033da1" fill-opacity="1" stroke-opacity="1"/><path d="M1688.2453335455846,772.659382870102L1746.9400444483056,976.2868221580366L1864.8446434660289,841.5326031374069Z" fill="#00309b" stroke="#00309b" fill-opacity="1" stroke-opacity="1"/><path d="M1864.8446434660289,841.5326031374069L1746.9400444483056,976.2868221580366L1925.2632568774761,962.7650722155973Z" fill="#001a8f" stroke="#001a8f" fill-opacity="1" stroke-opacity="1"/><path d="M-56.68630488983844,983.5839357678794L652.9140247955971,996.3856889149383L562.3032502207598,988.5642611917863Z" fill="#5f78a8" stroke="#5f78a8" fill-opacity="1" stroke-opacity="1"/><path d="M-56.68630488983844,983.5839357678794L562.3032502207598,988.5642611917863L341.84531831473004,964.857890306332Z" fill="#667dad" stroke="#667dad" fill-opacity="1" stroke-opacity="1"/><path d="M-56.68630488983844,983.5839357678794L341.84531831473004,964.857890306332L93.8720606307682,941.7032415798258Z" fill="#7085b8" stroke="#7085b8" fill-opacity="1" stroke-opacity="1"/><path d="M93.8720606307682,941.7032415798258L341.84531831473004,964.857890306332L194.6580655281983,934.8960199010937Z" fill="#6b86b5" stroke="#6b86b5" fill-opacity="1" stroke-opacity="1"/><path d="M652.9140247955971,996.3856889149383L1521.6009114209849,998.4229537436801L987.4413190102234,941.7670278470621Z" fill="#285eaf" stroke="#285eaf" fill-opacity="1" stroke-opacity="1"/><path d="M652.9140247955971,996.3856889149383L987.4413190102234,941.7670278470621L782.2010723817281,926.8446445345317Z" fill="#4074ae" stroke="#4074ae" fill-opacity="1" stroke-opacity="1"/><path d="M987.4413190102234,941.7670278470621L1521.6009114209849,998.4229537436801L1270.182313891975,944.5979729900394Z" fill="#134eaa" stroke="#134eaa" fill-opacity="1" stroke-opacity="1"/><path d="M987.4413190102234,941.7670278470621L1270.182313891975,944.5979729900394L1150.1353096874618,921.4008510247112Z" fill="#2061b3" stroke="#2061b3" fill-opacity="1" stroke-opacity="1"/><path d="M1270.182313891975,944.5979729900394L1521.6009114209849,998.4229537436801L1479.3124824921385,965.2812964208341Z" fill="#023ba0" stroke="#023ba0" fill-opacity="1" stroke-opacity="1"/><path d="M1521.6009114209849,998.4229537436801L1925.2632568774761,962.7650722155973L1746.9400444483056,976.2868221580366Z" fill="#00198f" stroke="#00198f" fill-opacity="1" stroke-opacity="1"/></g></svg>