<svg width="1680" height="892" xmlns="http://www.w3.org/2000/svg"><g><path d="M-103.03628151001584,-105.92772701724351L-126.76753329840705,473.60071593146387L-63.33682975178833,97.95891334574344Z" fill="#ffffff" stroke="#ffffff" fill-opacity="1" stroke-opacity="1"/><path d="M-103.03628151001584,-105.92772701724351L-63.33682975178833,97.95891334574344L18.78754750218587,-19.176003454008537Z" fill="#ffffff" stroke="#ffffff" fill-opacity="1" stroke-opacity="1"/><path d="M-103.03628151001584,-105.92772701724351L18.78754750218587,-19.176003454008537L222.69154651408078,-50.83998496396828Z" fill="#fdfdfd" stroke="#fdfdfd" fill-opacity="1" stroke-opacity="1"/><path d="M-103.03628151001584,-105.92772701724351L222.69154651408078,-50.83998496396828L475.3744434498003,-128.41684711702973Z" fill="#f7f7f7" stroke="#f7f7f7" fill-opacity="1" stroke-opacity="1"/><path d="M18.78754750218587,-19.176003454008537L-63.33682975178833,97.95891334574344L74.15817901531409,101.97602526893989Z" fill="#ffffff" stroke="#ffffff" fill-opacity="1" stroke-opacity="1"/><path d="M18.78754750218587,-19.176003454008537L74.15817901531409,101.97602526893989L222.69154651408078,-50.83998496396828Z" fill="#fbfbfb" stroke="#fbfbfb" fill-opacity="1" stroke-opacity="1"/><path d="M222.69154651408078,-50.83998496396828L74.15817901531409,101.97602526893989L190.79846027462676,105.61037498168254Z" fill="#f9f9f9" stroke="#f9f9f9" fill-opacity="1" stroke-opacity="1"/><path d="M222.69154651408078,-50.83998496396828L190.79846027462676,105.61037498168254L367.467998879757,112.75720678149695Z" fill="#f3f3f3" stroke="#f3f3f3" fill-opacity="1" stroke-opacity="1"/><path d="M222.69154651408078,-50.83998496396828L367.467998879757,112.75720678149695L373.1673881889504,-79.59997621427146Z" fill="#efefef" stroke="#efefef" fill-opacity="1" stroke-opacity="1"/><path d="M222.69154651408078,-50.83998496396828L373.1673881889504,-79.59997621427146L475.3744434498003,-128.41684711702973Z" fill="#ededed" stroke="#ededed" fill-opacity="1" stroke-opacity="1"/><path d="M373.1673881889504,-79.59997621427146L367.467998879757,112.75720678149695L519.5181097629311,64.51199649364602Z" fill="#e9e9e9" stroke="#e9e9e9" fill-opacity="1" stroke-opacity="1"/><path d="M373.1673881889504,-79.59997621427146L519.5181097629311,64.51199649364602L475.3744434498003,-128.41684711702973Z" fill="#e6e6e6" stroke="#e6e6e6" fill-opacity="1" stroke-opacity="1"/><path d="M475.3744434498003,-128.41684711702973L519.5181097629311,64.51199649364602L622.1845927964092,-85.3286451946353Z" fill="#e0e0e0" stroke="#e0e0e0" fill-opacity="1" stroke-opacity="1"/><path d="M475.3744434498003,-128.41684711702973L622.1845927964092,-85.3286451946353L1010.2221486507289,-121.84729510273078Z" fill="#cfcfcf" stroke="#cfcfcf" fill-opacity="1" stroke-opacity="1"/><path d="M475.3744434498003,-128.41684711702973L1010.2221486507289,-121.84729510273078L1545.4135802346782,-123.32772435570772Z" fill="#b2b2b2" stroke="#b2b2b2" fill-opacity="1" stroke-opacity="1"/><path d="M622.1845927964092,-85.3286451946353L519.5181097629311,64.51199649364602L630.5553908866203,16.35840956275656Z" fill="#dbdbdb" stroke="#dbdbdb" fill-opacity="1" stroke-opacity="1"/><path d="M622.1845927964092,-85.3286451946353L630.5553908866203,16.35840956275656L851.6028209155306,-16.554973260611064Z" fill="#cfcfcf" stroke="#cfcfcf" fill-opacity="1" stroke-opacity="1"/><path d="M622.1845927964092,-85.3286451946353L851.6028209155306,-16.554973260611064L1010.2221486507289,-121.84729510273078Z" fill="#c3c3c3" stroke="#c3c3c3" fill-opacity="1" stroke-opacity="1"/><path d="M851.6028209155306,-16.554973260611064L630.5553908866203,16.35840956275656L846.2484351728526,41.545986249712215Z" fill="#c8c8c8" stroke="#c8c8c8" fill-opacity="1" stroke-opacity="1"/><path d="M851.6028209155306,-16.554973260611064L846.2484351728526,41.545986249712215L1009.9693512530986,20.541461768574774Z" fill="#bcbcbc" stroke="#bcbcbc" fill-opacity="1" stroke-opacity="1"/><path d="M851.6028209155306,-16.554973260611064L1009.9693512530986,20.541461768574774L1010.2221486507289,-121.84729510273078Z" fill="#b7b7b7" stroke="#b7b7b7" fill-opacity="1" stroke-opacity="1"/><path d="M1010.2221486507289,-121.84729510273078L1009.9693512530986,20.541461768574774L1077.5827283071205,-43.98019373729518Z" fill="#b0b0b0" stroke="#b0b0b0" fill-opacity="1" stroke-opacity="1"/><path d="M1010.2221486507289,-121.84729510273078L1077.5827283071205,-43.98019373729518L1331.0606364598962,-50.320142193965225Z" fill="#a6a6a6" stroke="#a6a6a6" fill-opacity="1" stroke-opacity="1"/><path d="M1010.2221486507289,-121.84729510273078L1331.0606364598962,-50.320142193965225L1430.5480292541845,-74.26063286152915Z" fill="#989898" stroke="#989898" fill-opacity="1" stroke-opacity="1"/><path d="M1010.2221486507289,-121.84729510273078L1430.5480292541845,-74.26063286152915L1545.4135802346782,-123.32772435570772Z" fill="#909090" stroke="#909090" fill-opacity="1" stroke-opacity="1"/><path d="M1077.5827283071205,-43.98019373729518L1009.9693512530986,20.541461768574774L1110.9898861749698,124.68098169202067Z" fill="#aeaeae" stroke="#aeaeae" fill-opacity="1" stroke-opacity="1"/><path d="M1077.5827283071205,-43.98019373729518L1110.9898861749698,124.68098169202067L1284.2280708625833,58.26224717988823Z" fill="#a4a4a4" stroke="#a4a4a4" fill-opacity="1" stroke-opacity="1"/><path d="M1077.5827283071205,-43.98019373729518L1284.2280708625833,58.26224717988823L1331.0606364598962,-50.320142193965225Z" fill="#9b9b9b" stroke="#9b9b9b" fill-opacity="1" stroke-opacity="1"/><path d="M1331.0606364598962,-50.320142193965225L1284.2280708625833,58.26224717988823L1418.776089071702,118.81980277158489Z" fill="#8e8e8e" stroke="#8e8e8e" fill-opacity="1" stroke-opacity="1"/><path d="M1331.0606364598962,-50.320142193965225L1418.776089071702,118.81980277158489L1430.5480292541845,-74.26063286152915Z" fill="#8a8a8a" stroke="#8a8a8a" fill-opacity="1" stroke-opacity="1"/><path d="M1430.5480292541845,-74.26063286152915L1418.776089071702,118.81980277158489L1610.5941685970465,36.12097408245596Z" fill="#808080" stroke="#808080" fill-opacity="1" stroke-opacity="1"/><path d="M1430.5480292541845,-74.26063286152915L1610.5941685970465,36.12097408245596L1545.4135802346782,-123.32772435570772Z" fill="#808080" stroke="#808080" fill-opacity="1" stroke-opacity="1"/><path d="M1545.4135802346782,-123.32772435570772L1610.5941685970465,36.12097408245596L1711.1369187053058,-29.91415481890266Z" fill="#808080" stroke="#808080" fill-opacity="1" stroke-opacity="1"/><path d="M1545.4135802346782,-123.32772435570772L1711.1369187053058,-29.91415481890266L1827.053484491196,-46.49512142709841Z" fill="#808080" stroke="#808080" fill-opacity="1" stroke-opacity="1"/><path d="M1711.1369187053058,-29.91415481890266L1610.5941685970465,36.12097408245596L1752.164835839684,66.77870651562125Z" fill="#808080" stroke="#808080" fill-opacity="1" stroke-opacity="1"/><path d="M1711.1369187053058,-29.91415481890266L1752.164835839684,66.77870651562125L1827.053484491196,-46.49512142709841Z" fill="#808080" stroke="#808080" fill-opacity="1" stroke-opacity="1"/><path d="M1827.053484491196,-46.49512142709841L1752.164835839684,66.77870651562125L1927.277708420516,117.94821926039303Z" fill="#808080" stroke="#808080" fill-opacity="1" stroke-opacity="1"/><path d="M-63.33682975178833,97.95891334574344L-126.76753329840705,473.60071593146387L-83.86262576154397,379.8839911895286Z" fill="#ececec" stroke="#ececec" fill-opacity="1" stroke-opacity="1"/><path d="M-63.33682975178833,97.95891334574344L-83.86262576154397,379.8839911895286L-19.457000924987597,269.3812881176777Z" fill="#f8f8f8" stroke="#f8f8f8" fill-opacity="1" stroke-opacity="1"/><path d="M-63.33682975178833,97.95891334574344L-19.457000924987597,269.3812881176777L86.17327260861704,171.55287049268696Z" fill="#ffffff" stroke="#ffffff" fill-opacity="1" stroke-opacity="1"/><path d="M-63.33682975178833,97.95891334574344L86.17327260861704,171.55287049268696L74.15817901531409,101.97602526893989Z" fill="#fefefe" stroke="#fefefe" fill-opacity="1" stroke-opacity="1"/><path d="M74.15817901531409,101.97602526893989L86.17327260861704,171.55287049268696L190.79846027462676,105.61037498168254Z" fill="#fbfbfb" stroke="#fbfbfb" fill-opacity="1" stroke-opacity="1"/><path d="M190.79846027462676,105.61037498168254L86.17327260861704,171.55287049268696L245.86327877817627,166.42360424812654Z" fill="#f8f8f8" stroke="#f8f8f8" fill-opacity="1" stroke-opacity="1"/><path d="M190.79846027462676,105.61037498168254L245.86327877817627,166.42360424812654L367.467998879757,112.75720678149695Z" fill="#f3f3f3" stroke="#f3f3f3" fill-opacity="1" stroke-opacity="1"/><path d="M367.467998879757,112.75720678149695L245.86327877817627,166.42360424812654L377.44815285678084,168.8064879730109Z" fill="#efefef" stroke="#efefef" fill-opacity="1" stroke-opacity="1"/><path d="M367.467998879757,112.75720678149695L377.44815285678084,168.8064879730109L519.5181097629311,64.51199649364602Z" fill="#e9e9e9" stroke="#e9e9e9" fill-opacity="1" stroke-opacity="1"/><path d="M519.5181097629311,64.51199649364602L377.44815285678084,168.8064879730109L500.0166908577799,226.79059438317796Z" fill="#e5e5e5" stroke="#e5e5e5" fill-opacity="1" stroke-opacity="1"/><path d="M519.5181097629311,64.51199649364602L500.0166908577799,226.79059438317796L662.2598130358339,190.13714610536852Z" fill="#dedede" stroke="#dedede" fill-opacity="1" stroke-opacity="1"/><path d="M519.5181097629311,64.51199649364602L662.2598130358339,190.13714610536852L630.5553908866203,16.35840956275656Z" fill="#dadada" stroke="#dadada" fill-opacity="1" stroke-opacity="1"/><path d="M630.5553908866203,16.35840956275656L662.2598130358339,190.13714610536852L846.2484351728526,41.545986249712215Z" fill="#cecece" stroke="#cecece" fill-opacity="1" stroke-opacity="1"/><path d="M846.2484351728526,41.545986249712215L662.2598130358339,190.13714610536852L813.38050335915,201.27720265752663Z" fill="#c8c8c8" stroke="#c8c8c8" fill-opacity="1" stroke-opacity="1"/><path d="M846.2484351728526,41.545986249712215L813.38050335915,201.27720265752663L1013.5915748596951,184.15413380471688Z" fill="#bdbdbd" stroke="#bdbdbd" fill-opacity="1" stroke-opacity="1"/><path d="M846.2484351728526,41.545986249712215L1013.5915748596951,184.15413380471688L1009.9693512530986,20.541461768574774Z" fill="#b7b7b7" stroke="#b7b7b7" fill-opacity="1" stroke-opacity="1"/><path d="M1009.9693512530986,20.541461768574774L1013.5915748596951,184.15413380471688L1110.9898861749698,124.68098169202067Z" fill="#afafaf" stroke="#afafaf" fill-opacity="1" stroke-opacity="1"/><path d="M1110.9898861749698,124.68098169202067L1013.5915748596951,184.15413380471688L1107.1674476010994,255.6911744836706Z" fill="#adadad" stroke="#adadad" fill-opacity="1" stroke-opacity="1"/><path d="M1110.9898861749698,124.68098169202067L1107.1674476010994,255.6911744836706L1257.656508186967,191.52342542313582Z" fill="#a4a4a4" stroke="#a4a4a4" fill-opacity="1" stroke-opacity="1"/><path d="M1110.9898861749698,124.68098169202067L1257.656508186967,191.52342542313582L1284.2280708625833,58.26224717988823Z" fill="#9d9d9d" stroke="#9d9d9d" fill-opacity="1" stroke-opacity="1"/><path d="M1284.2280708625833,58.26224717988823L1257.656508186967,191.52342542313582L1418.776089071702,118.81980277158489Z" fill="#919191" stroke="#919191" fill-opacity="1" stroke-opacity="1"/><path d="M1418.776089071702,118.81980277158489L1257.656508186967,191.52342542313582L1464.0378070792576,204.5877932368684Z" fill="#8b8b8b" stroke="#8b8b8b" fill-opacity="1" stroke-opacity="1"/><path d="M1418.776089071702,118.81980277158489L1464.0378070792576,204.5877932368684L1610.5941685970465,36.12097408245596Z" fill="#808080" stroke="#808080" fill-opacity="1" stroke-opacity="1"/><path d="M1610.5941685970465,36.12097408245596L1464.0378070792576,204.5877932368684L1629.5304241972517,219.36220306652353Z" fill="#808080" stroke="#808080" fill-opacity="1" stroke-opacity="1"/><path d="M1610.5941685970465,36.12097408245596L1629.5304241972517,219.36220306652353L1752.164835839684,66.77870651562125Z" fill="#808080" stroke="#808080" fill-opacity="1" stroke-opacity="1"/><path d="M1752.164835839684,66.77870651562125L1629.5304241972517,219.36220306652353L1702.02202871112,227.51042276461462Z" fill="#808080" stroke="#808080" fill-opacity="1" stroke-opacity="1"/><path d="M1752.164835839684,66.77870651562125L1702.02202871112,227.51042276461462L1866.6357563066208,268.3192094071915Z" fill="#808080" stroke="#808080" fill-opacity="1" stroke-opacity="1"/><path d="M1752.164835839684,66.77870651562125L1866.6357563066208,268.3192094071915L1927.277708420516,117.94821926039303Z" fill="#808080" stroke="#808080" fill-opacity="1" stroke-opacity="1"/><path d="M1927.277708420516,117.94821926039303L1866.6357563066208,268.3192094071915L1854.4325689448817,356.1578867843861Z" fill="#787878" stroke="#787878" fill-opacity="1" stroke-opacity="1"/><path d="M1927.277708420516,117.94821926039303L1854.4325689448817,356.1578867843861L1858.098600456163,519.7736057706205Z" fill="#696969" stroke="#696969" fill-opacity="1" stroke-opacity="1"/><path d="M1927.277708420516,117.94821926039303L1858.098600456163,519.7736057706205L1883.6873621346283,657.6707025154121Z" fill="#525252" stroke="#525252" fill-opacity="1" stroke-opacity="1"/><path d="M1927.277708420516,117.94821926039303L1883.6873621346283,657.6707025154121L1878.9453364378803,975.9385325087515Z" fill="#333333" stroke="#333333" fill-opacity="1" stroke-opacity="1"/><path d="M-19.457000924987597,269.3812881176777L-83.86262576154397,379.8839911895286L122.40914565245697,399.1560806420421Z" fill="#e4e4e4" stroke="#e4e4e4" fill-opacity="1" stroke-opacity="1"/><path d="M-19.457000924987597,269.3812881176777L122.40914565245697,399.1560806420421L86.17327260861704,171.55287049268696Z" fill="#f0f0f0" stroke="#f0f0f0" fill-opacity="1" stroke-opacity="1"/><path d="M86.17327260861704,171.55287049268696L122.40914565245697,399.1560806420421L200.16811152855064,389.732112707158Z" fill="#e5e5e5" stroke="#e5e5e5" fill-opacity="1" stroke-opacity="1"/><path d="M86.17327260861704,171.55287049268696L200.16811152855064,389.732112707158L245.86327877817627,166.42360424812654Z" fill="#f2f2f2" stroke="#f2f2f2" fill-opacity="1" stroke-opacity="1"/><path d="M245.86327877817627,166.42360424812654L200.16811152855064,389.732112707158L329.94637838685514,339.04332200327855Z" fill="#e4e4e4" stroke="#e4e4e4" fill-opacity="1" stroke-opacity="1"/><path d="M245.86327877817627,166.42360424812654L329.94637838685514,339.04332200327855L377.44815285678084,168.8064879730109Z" fill="#ececec" stroke="#ececec" fill-opacity="1" stroke-opacity="1"/><path d="M377.44815285678084,168.8064879730109L329.94637838685514,339.04332200327855L500.0166908577799,226.79059438317796Z" fill="#e3e3e3" stroke="#e3e3e3" fill-opacity="1" stroke-opacity="1"/><path d="M500.0166908577799,226.79059438317796L329.94637838685514,339.04332200327855L577.9146716181091,389.1619569531193Z" fill="#d1d1d1" stroke="#d1d1d1" fill-opacity="1" stroke-opacity="1"/><path d="M500.0166908577799,226.79059438317796L577.9146716181091,389.1619569531193L621.6293728707835,339.93295173210805Z" fill="#cacaca" stroke="#cacaca" fill-opacity="1" stroke-opacity="1"/><path d="M500.0166908577799,226.79059438317796L621.6293728707835,339.93295173210805L662.2598130358339,190.13714610536852Z" fill="#d3d3d3" stroke="#d3d3d3" fill-opacity="1" stroke-opacity="1"/><path d="M662.2598130358339,190.13714610536852L621.6293728707835,339.93295173210805L813.38050335915,201.27720265752663Z" fill="#c9c9c9" stroke="#c9c9c9" fill-opacity="1" stroke-opacity="1"/><path d="M813.38050335915,201.27720265752663L621.6293728707835,339.93295173210805L858.8031105378849,366.0843347986174Z" fill="#b9b9b9" stroke="#b9b9b9" fill-opacity="1" stroke-opacity="1"/><path d="M813.38050335915,201.27720265752663L858.8031105378849,366.0843347986174L955.7007248183255,332.26833262539213Z" fill="#afafaf" stroke="#afafaf" fill-opacity="1" stroke-opacity="1"/><path d="M813.38050335915,201.27720265752663L955.7007248183255,332.26833262539213L1013.5915748596951,184.15413380471688Z" fill="#b4b4b4" stroke="#b4b4b4" fill-opacity="1" stroke-opacity="1"/><path d="M1013.5915748596951,184.15413380471688L955.7007248183255,332.26833262539213L1107.1674476010994,255.6911744836706Z" fill="#a8a8a8" stroke="#a8a8a8" fill-opacity="1" stroke-opacity="1"/><path d="M1107.1674476010994,255.6911744836706L955.7007248183255,332.26833262539213L1167.082181403341,416.91002368107473Z" fill="#959595" stroke="#959595" fill-opacity="1" stroke-opacity="1"/><path d="M1107.1674476010994,255.6911744836706L1167.082181403341,416.91002368107473L1334.4623917568415,326.9401185839513Z" fill="#878787" stroke="#878787" fill-opacity="1" stroke-opacity="1"/><path d="M1107.1674476010994,255.6911744836706L1334.4623917568415,326.9401185839513L1257.656508186967,191.52342542313582Z" fill="#929292" stroke="#929292" fill-opacity="1" stroke-opacity="1"/><path d="M1257.656508186967,191.52342542313582L1334.4623917568415,326.9401185839513L1464.0378070792576,204.5877932368684Z" fill="#878787" stroke="#878787" fill-opacity="1" stroke-opacity="1"/><path d="M1464.0378070792576,204.5877932368684L1334.4623917568415,326.9401185839513L1396.9212400329886,394.98672033739456Z" fill="#787878" stroke="#787878" fill-opacity="1" stroke-opacity="1"/><path d="M1464.0378070792576,204.5877932368684L1396.9212400329886,394.98672033739456L1601.2359055555582,326.7956868345805Z" fill="#6f6f6f" stroke="#6f6f6f" fill-opacity="1" stroke-opacity="1"/><path d="M1464.0378070792576,204.5877932368684L1601.2359055555582,326.7956868345805L1629.5304241972517,219.36220306652353Z" fill="#787878" stroke="#787878" fill-opacity="1" stroke-opacity="1"/><path d="M1629.5304241972517,219.36220306652353L1601.2359055555582,326.7956868345805L1702.02202871112,227.51042276461462Z" fill="#777777" stroke="#777777" fill-opacity="1" stroke-opacity="1"/><path d="M1702.02202871112,227.51042276461462L1601.2359055555582,326.7956868345805L1777.5581819616837,322.31445051405404Z" fill="#727272" stroke="#727272" fill-opacity="1" stroke-opacity="1"/><path d="M1702.02202871112,227.51042276461462L1777.5581819616837,322.31445051405404L1866.6357563066208,268.3192094071915Z" fill="#747474" stroke="#747474" fill-opacity="1" stroke-opacity="1"/><path d="M1866.6357563066208,268.3192094071915L1777.5581819616837,322.31445051405404L1854.4325689448817,356.1578867843861Z" fill="#6d6d6d" stroke="#6d6d6d" fill-opacity="1" stroke-opacity="1"/><path d="M-83.86262576154397,379.8839911895286L-126.76753329840705,473.60071593146387L37.04288245983451,552.7073065074495Z" fill="#cacaca" stroke="#cacaca" fill-opacity="1" stroke-opacity="1"/><path d="M-83.86262576154397,379.8839911895286L37.04288245983451,552.7073065074495L122.40914565245697,399.1560806420421Z" fill="#cecece" stroke="#cecece" fill-opacity="1" stroke-opacity="1"/><path d="M122.40914565245697,399.1560806420421L37.04288245983451,552.7073065074495L211.97434118126742,511.99011847985156Z" fill="#c1c1c1" stroke="#c1c1c1" fill-opacity="1" stroke-opacity="1"/><path d="M122.40914565245697,399.1560806420421L211.97434118126742,511.99011847985156L200.16811152855064,389.732112707158Z" fill="#cacaca" stroke="#cacaca" fill-opacity="1" stroke-opacity="1"/><path d="M200.16811152855064,389.732112707158L211.97434118126742,511.99011847985156L328.5655521794203,470.7308076691019Z" fill="#c1c1c1" stroke="#c1c1c1" fill-opacity="1" stroke-opacity="1"/><path d="M200.16811152855064,389.732112707158L328.5655521794203,470.7308076691019L329.94637838685514,339.04332200327855Z" fill="#cbcbcb" stroke="#cbcbcb" fill-opacity="1" stroke-opacity="1"/><path d="M329.94637838685514,339.04332200327855L328.5655521794203,470.7308076691019L577.9146716181091,389.1619569531193Z" fill="#c3c3c3" stroke="#c3c3c3" fill-opacity="1" stroke-opacity="1"/><path d="M577.9146716181091,389.1619569531193L328.5655521794203,470.7308076691019L515.4071689115061,544.8265916421914Z" fill="#b0b0b0" stroke="#b0b0b0" fill-opacity="1" stroke-opacity="1"/><path d="M577.9146716181091,389.1619569531193L515.4071689115061,544.8265916421914L683.8572004811214,468.13739083765097Z" fill="#a6a6a6" stroke="#a6a6a6" fill-opacity="1" stroke-opacity="1"/><path d="M577.9146716181091,389.1619569531193L683.8572004811214,468.13739083765097L621.6293728707835,339.93295173210805Z" fill="#b1b1b1" stroke="#b1b1b1" fill-opacity="1" stroke-opacity="1"/><path d="M621.6293728707835,339.93295173210805L683.8572004811214,468.13739083765097L858.8031105378849,366.0843347986174Z" fill="#a8a8a8" stroke="#a8a8a8" fill-opacity="1" stroke-opacity="1"/><path d="M858.8031105378849,366.0843347986174L683.8572004811214,468.13739083765097L788.5558624849025,515.5798396801172Z" fill="#969696" stroke="#969696" fill-opacity="1" stroke-opacity="1"/><path d="M858.8031105378849,366.0843347986174L788.5558624849025,515.5798396801172L949.5949658467576,571.7910012622972Z" fill="#878787" stroke="#878787" fill-opacity="1" stroke-opacity="1"/><path d="M858.8031105378849,366.0843347986174L949.5949658467576,571.7910012622972L955.7007248183255,332.26833262539213Z" fill="#8f8f8f" stroke="#8f8f8f" fill-opacity="1" stroke-opacity="1"/><path d="M955.7007248183255,332.26833262539213L949.5949658467576,571.7910012622972L1084.24021442817,574.591016375983Z" fill="#797979" stroke="#797979" fill-opacity="1" stroke-opacity="1"/><path d="M955.7007248183255,332.26833262539213L1084.24021442817,574.591016375983L1167.082181403341,416.91002368107473Z" fill="#7e7e7e" stroke="#7e7e7e" fill-opacity="1" stroke-opacity="1"/><path d="M1167.082181403341,416.91002368107473L1084.24021442817,574.591016375983L1284.0050722026438,476.60821790996624Z" fill="#686868" stroke="#686868" fill-opacity="1" stroke-opacity="1"/><path d="M1167.082181403341,416.91002368107473L1284.0050722026438,476.60821790996624L1334.4623917568415,326.9401185839513Z" fill="#707070" stroke="#707070" fill-opacity="1" stroke-opacity="1"/><path d="M1334.4623917568415,326.9401185839513L1284.0050722026438,476.60821790996624L1396.9212400329886,394.98672033739456Z" fill="#696969" stroke="#696969" fill-opacity="1" stroke-opacity="1"/><path d="M1396.9212400329886,394.98672033739456L1284.0050722026438,476.60821790996624L1460.9679491173683,516.5661028610666Z" fill="#575757" stroke="#575757" fill-opacity="1" stroke-opacity="1"/><path d="M1396.9212400329886,394.98672033739456L1460.9679491173683,516.5661028610666L1601.2359055555582,326.7956868345805Z" fill="#575757" stroke="#575757" fill-opacity="1" stroke-opacity="1"/><path d="M1601.2359055555582,326.7956868345805L1460.9679491173683,516.5661028610666L1629.2213342858986,553.5173275232751Z" fill="#4b4b4b" stroke="#4b4b4b" fill-opacity="1" stroke-opacity="1"/><path d="M1601.2359055555582,326.7956868345805L1629.2213342858986,553.5173275232751L1746.3282366895203,476.76889152214983Z" fill="#4e4e4e" stroke="#4e4e4e" fill-opacity="1" stroke-opacity="1"/><path d="M1601.2359055555582,326.7956868345805L1746.3282366895203,476.76889152214983L1777.5581819616837,322.31445051405404Z" fill="#5f5f5f" stroke="#5f5f5f" fill-opacity="1" stroke-opacity="1"/><path d="M1777.5581819616837,322.31445051405404L1746.3282366895203,476.76889152214983L1854.4325689448817,356.1578867843861Z" fill="#5c5c5c" stroke="#5c5c5c" fill-opacity="1" stroke-opacity="1"/><path d="M1854.4325689448817,356.1578867843861L1746.3282366895203,476.76889152214983L1858.098600456163,519.7736057706205Z" fill="#4e4e4e" stroke="#4e4e4e" fill-opacity="1" stroke-opacity="1"/><path d="M-126.76753329840705,473.60071593146387L-82.4816394925961,966.8425792329206L-100.27768837693003,710.6389394375293Z" fill="#949494" stroke="#949494" fill-opacity="1" stroke-opacity="1"/><path d="M-126.76753329840705,473.60071593146387L-100.27768837693003,710.6389394375293L37.04288245983451,552.7073065074495Z" fill="#b4b4b4" stroke="#b4b4b4" fill-opacity="1" stroke-opacity="1"/><path d="M37.04288245983451,552.7073065074495L-100.27768837693003,710.6389394375293L78.51700886975809,712.2741329964502Z" fill="#9f9f9f" stroke="#9f9f9f" fill-opacity="1" stroke-opacity="1"/><path d="M37.04288245983451,552.7073065074495L78.51700886975809,712.2741329964502L211.97434118126742,511.99011847985156Z" fill="#adadad" stroke="#adadad" fill-opacity="1" stroke-opacity="1"/><path d="M211.97434118126742,511.99011847985156L78.51700886975809,712.2741329964502L278.8538347788198,683.0832129605426Z" fill="#9e9e9e" stroke="#9e9e9e" fill-opacity="1" stroke-opacity="1"/><path d="M211.97434118126742,511.99011847985156L278.8538347788198,683.0832129605426L328.5655521794203,470.7308076691019Z" fill="#acacac" stroke="#acacac" fill-opacity="1" stroke-opacity="1"/><path d="M328.5655521794203,470.7308076691019L278.8538347788198,683.0832129605426L388.1738490612058,700.4138997886653Z" fill="#9a9a9a" stroke="#9a9a9a" fill-opacity="1" stroke-opacity="1"/><path d="M328.5655521794203,470.7308076691019L388.1738490612058,700.4138997886653L515.4071689115061,544.8265916421914Z" fill="#9f9f9f" stroke="#9f9f9f" fill-opacity="1" stroke-opacity="1"/><path d="M515.4071689115061,544.8265916421914L388.1738490612058,700.4138997886653L533.7375064631265,713.963721444607Z" fill="#868686" stroke="#868686" fill-opacity="1" stroke-opacity="1"/><path d="M515.4071689115061,544.8265916421914L533.7375064631265,713.963721444607L631.5708556250391,729.673359416851Z" fill="#7d7d7d" stroke="#7d7d7d" fill-opacity="1" stroke-opacity="1"/><path d="M515.4071689115061,544.8265916421914L631.5708556250391,729.673359416851L683.8572004811214,468.13739083765097Z" fill="#8d8d8d" stroke="#8d8d8d" fill-opacity="1" stroke-opacity="1"/><path d="M683.8572004811214,468.13739083765097L631.5708556250391,729.673359416851L788.5558624849025,515.5798396801172Z" fill="#858585" stroke="#858585" fill-opacity="1" stroke-opacity="1"/><path d="M788.5558624849025,515.5798396801172L631.5708556250391,729.673359416851L860.0704602341016,705.32671234001Z" fill="#6c6c6c" stroke="#6c6c6c" fill-opacity="1" stroke-opacity="1"/><path d="M788.5558624849025,515.5798396801172L860.0704602341016,705.32671234001L949.5949658467576,571.7910012622972Z" fill="#707070" stroke="#707070" fill-opacity="1" stroke-opacity="1"/><path d="M949.5949658467576,571.7910012622972L860.0704602341016,705.32671234001L1018.3655633836349,720.5261157277657Z" fill="#565656" stroke="#565656" fill-opacity="1" stroke-opacity="1"/><path d="M949.5949658467576,571.7910012622972L1018.3655633836349,720.5261157277657L1084.24021442817,574.591016375983Z" fill="#5c5c5c" stroke="#5c5c5c" fill-opacity="1" stroke-opacity="1"/><path d="M1084.24021442817,574.591016375983L1018.3655633836349,720.5261157277657L1100.6468047610267,673.6925888973371Z" fill="#4e4e4e" stroke="#4e4e4e" fill-opacity="1" stroke-opacity="1"/><path d="M1084.24021442817,574.591016375983L1100.6468047610267,673.6925888973371L1298.4664266315565,719.4037136514042Z" fill="#454545" stroke="#454545" fill-opacity="1" stroke-opacity="1"/><path d="M1084.24021442817,574.591016375983L1298.4664266315565,719.4037136514042L1284.0050722026438,476.60821790996624Z" fill="#4f4f4f" stroke="#4f4f4f" fill-opacity="1" stroke-opacity="1"/><path d="M1284.0050722026438,476.60821790996624L1298.4664266315565,719.4037136514042L1449.0817292459355,627.2490271876301Z" fill="#3d3d3d" stroke="#3d3d3d" fill-opacity="1" stroke-opacity="1"/><path d="M1284.0050722026438,476.60821790996624L1449.0817292459355,627.2490271876301L1460.9679491173683,516.5661028610666Z" fill="#454545" stroke="#454545" fill-opacity="1" stroke-opacity="1"/><path d="M1460.9679491173683,516.5661028610666L1449.0817292459355,627.2490271876301L1629.2213342858986,553.5173275232751Z" fill="#373737" stroke="#373737" fill-opacity="1" stroke-opacity="1"/><path d="M1629.2213342858986,553.5173275232751L1449.0817292459355,627.2490271876301L1554.2122337794806,709.3531044291599Z" fill="#282828" stroke="#282828" fill-opacity="1" stroke-opacity="1"/><path d="M1629.2213342858986,553.5173275232751L1554.2122337794806,709.3531044291599L1724.4474014776592,723.0632903164732Z" fill="#1f1f1f" stroke="#1f1f1f" fill-opacity="1" stroke-opacity="1"/><path d="M1629.2213342858986,553.5173275232751L1724.4474014776592,723.0632903164732L1746.3282366895203,476.76889152214983Z" fill="#333333" stroke="#333333" fill-opacity="1" stroke-opacity="1"/><path d="M1746.3282366895203,476.76889152214983L1724.4474014776592,723.0632903164732L1858.098600456163,519.7736057706205Z" fill="#353535" stroke="#353535" fill-opacity="1" stroke-opacity="1"/><path d="M1858.098600456163,519.7736057706205L1724.4474014776592,723.0632903164732L1883.6873621346283,657.6707025154121Z" fill="#272727" stroke="#272727" fill-opacity="1" stroke-opacity="1"/><path d="M-100.27768837693003,710.6389394375293L-82.4816394925961,966.8425792329206L-31.49105426610319,803.4531444912838Z" fill="#8c8c8c" stroke="#8c8c8c" fill-opacity="1" stroke-opacity="1"/><path d="M-100.27768837693003,710.6389394375293L-31.49105426610319,803.4531444912838L78.51700886975809,712.2741329964502Z" fill="#929292" stroke="#929292" fill-opacity="1" stroke-opacity="1"/><path d="M78.51700886975809,712.2741329964502L-31.49105426610319,803.4531444912838L91.68530093721448,796.1953809361725Z" fill="#8e8e8e" stroke="#8e8e8e" fill-opacity="1" stroke-opacity="1"/><path d="M78.51700886975809,712.2741329964502L91.68530093721448,796.1953809361725L189.0846541700869,823.4291812864693Z" fill="#8b8b8b" stroke="#8b8b8b" fill-opacity="1" stroke-opacity="1"/><path d="M78.51700886975809,712.2741329964502L189.0846541700869,823.4291812864693L278.8538347788198,683.0832129605426Z" fill="#8b8b8b" stroke="#8b8b8b" fill-opacity="1" stroke-opacity="1"/><path d="M278.8538347788198,683.0832129605426L189.0846541700869,823.4291812864693L416.0438297597867,877.0912506199716Z" fill="#818181" stroke="#818181" fill-opacity="1" stroke-opacity="1"/><path d="M278.8538347788198,683.0832129605426L416.0438297597867,877.0912506199716L388.1738490612058,700.4138997886653Z" fill="#808080" stroke="#808080" fill-opacity="1" stroke-opacity="1"/><path d="M388.1738490612058,700.4138997886653L416.0438297597867,877.0912506199716L493.64051573892107,832.6448825147022Z" fill="#777777" stroke="#777777" fill-opacity="1" stroke-opacity="1"/><path d="M388.1738490612058,700.4138997886653L493.64051573892107,832.6448825147022L533.7375064631265,713.963721444607Z" fill="#777777" stroke="#777777" fill-opacity="1" stroke-opacity="1"/><path d="M533.7375064631265,713.963721444607L493.64051573892107,832.6448825147022L637.0362239005466,772.8494508804704Z" fill="#707070" stroke="#707070" fill-opacity="1" stroke-opacity="1"/><path d="M533.7375064631265,713.963721444607L637.0362239005466,772.8494508804704L631.5708556250391,729.673359416851Z" fill="#6d6d6d" stroke="#6d6d6d" fill-opacity="1" stroke-opacity="1"/><path d="M631.5708556250391,729.673359416851L637.0362239005466,772.8494508804704L826.5651482238251,785.5641049011138Z" fill="#616161" stroke="#616161" fill-opacity="1" stroke-opacity="1"/><path d="M631.5708556250391,729.673359416851L826.5651482238251,785.5641049011138L860.0704602341016,705.32671234001Z" fill="#5b5b5b" stroke="#5b5b5b" fill-opacity="1" stroke-opacity="1"/><path d="M860.0704602341016,705.32671234001L826.5651482238251,785.5641049011138L966.213666403091,813.8866466752155Z" fill="#4f4f4f" stroke="#4f4f4f" fill-opacity="1" stroke-opacity="1"/><path d="M860.0704602341016,705.32671234001L966.213666403091,813.8866466752155L1018.3655633836349,720.5261157277657Z" fill="#4b4b4b" stroke="#4b4b4b" fill-opacity="1" stroke-opacity="1"/><path d="M1018.3655633836349,720.5261157277657L966.213666403091,813.8866466752155L1161.6570770669214,822.5791331358153Z" fill="#3f3f3f" stroke="#3f3f3f" fill-opacity="1" stroke-opacity="1"/><path d="M1018.3655633836349,720.5261157277657L1161.6570770669214,822.5791331358153L1100.6468047610267,673.6925888973371Z" fill="#3f3f3f" stroke="#3f3f3f" fill-opacity="1" stroke-opacity="1"/><path d="M1100.6468047610267,673.6925888973371L1161.6570770669214,822.5791331358153L1298.4664266315565,719.4037136514042Z" fill="#343434" stroke="#343434" fill-opacity="1" stroke-opacity="1"/><path d="M1298.4664266315565,719.4037136514042L1161.6570770669214,822.5791331358153L1328.5551677636508,860.5163440156713Z" fill="#272727" stroke="#272727" fill-opacity="1" stroke-opacity="1"/><path d="M1298.4664266315565,719.4037136514042L1328.5551677636508,860.5163440156713L1468.1923143698536,772.58594456045Z" fill="#1c1c1c" stroke="#1c1c1c" fill-opacity="1" stroke-opacity="1"/><path d="M1298.4664266315565,719.4037136514042L1468.1923143698536,772.58594456045L1449.0817292459355,627.2490271876301Z" fill="#1e1e1e" stroke="#1e1e1e" fill-opacity="1" stroke-opacity="1"/><path d="M1449.0817292459355,627.2490271876301L1468.1923143698536,772.58594456045L1554.2122337794806,709.3531044291599Z" fill="#161616" stroke="#161616" fill-opacity="1" stroke-opacity="1"/><path d="M1554.2122337794806,709.3531044291599L1468.1923143698536,772.58594456045L1597.9920390210596,788.2175980959348Z" fill="#121212" stroke="#121212" fill-opacity="1" stroke-opacity="1"/><path d="M1554.2122337794806,709.3531044291599L1597.9920390210596,788.2175980959348L1724.4474014776592,723.0632903164732Z" fill="#131313" stroke="#131313" fill-opacity="1" stroke-opacity="1"/><path d="M1724.4474014776592,723.0632903164732L1597.9920390210596,788.2175980959348L1704.5260594895692,794.046639302301Z" fill="#111111" stroke="#111111" fill-opacity="1" stroke-opacity="1"/><path d="M1724.4474014776592,723.0632903164732L1704.5260594895692,794.046639302301L1821.3350649014794,786.0241009937315Z" fill="#111111" stroke="#111111" fill-opacity="1" stroke-opacity="1"/><path d="M1724.4474014776592,723.0632903164732L1821.3350649014794,786.0241009937315L1883.6873621346283,657.6707025154121Z" fill="#141414" stroke="#141414" fill-opacity="1" stroke-opacity="1"/><path d="M1883.6873621346283,657.6707025154121L1821.3350649014794,786.0241009937315L1878.9453364378803,975.9385325087515Z" fill="#0e0e0e" stroke="#0e0e0e" fill-opacity="1" stroke-opacity="1"/><path d="M-31.49105426610319,803.4531444912838L-82.4816394925961,966.8425792329206L49.343351584311485,977.5051026776044Z" fill="#868686" stroke="#868686" fill-opacity="1" stroke-opacity="1"/><path d="M-31.49105426610319,803.4531444912838L49.343351584311485,977.5051026776044L91.68530093721448,796.1953809361725Z" fill="#898989" stroke="#898989" fill-opacity="1" stroke-opacity="1"/><path d="M91.68530093721448,796.1953809361725L49.343351584311485,977.5051026776044L189.0846541700869,823.4291812864693Z" fill="#858585" stroke="#858585" fill-opacity="1" stroke-opacity="1"/><path d="M189.0846541700869,823.4291812864693L49.343351584311485,977.5051026776044L199.1594145009937,1031.2450629757393Z" fill="#7e7e7e" stroke="#7e7e7e" fill-opacity="1" stroke-opacity="1"/><path d="M189.0846541700869,823.4291812864693L199.1594145009937,1031.2450629757393L366.1348022567195,972.2079939012293Z" fill="#797979" stroke="#797979" fill-opacity="1" stroke-opacity="1"/><path d="M189.0846541700869,823.4291812864693L366.1348022567195,972.2079939012293L416.0438297597867,877.0912506199716Z" fill="#787878" stroke="#787878" fill-opacity="1" stroke-opacity="1"/><path d="M416.0438297597867,877.0912506199716L366.1348022567195,972.2079939012293L473.60624453781696,1033.1039681674224Z" fill="#6c6c6c" stroke="#6c6c6c" fill-opacity="1" stroke-opacity="1"/><path d="M416.0438297597867,877.0912506199716L473.60624453781696,1033.1039681674224L493.64051573892107,832.6448825147022Z" fill="#6d6d6d" stroke="#6d6d6d" fill-opacity="1" stroke-opacity="1"/><path d="M493.64051573892107,832.6448825147022L473.60624453781696,1033.1039681674224L649.3491419992924,1012.5809377529737Z" fill="#636363" stroke="#636363" fill-opacity="1" stroke-opacity="1"/><path d="M493.64051573892107,832.6448825147022L649.3491419992924,1012.5809377529737L637.0362239005466,772.8494508804704Z" fill="#656565" stroke="#656565" fill-opacity="1" stroke-opacity="1"/><path d="M637.0362239005466,772.8494508804704L649.3491419992924,1012.5809377529737L858.4282862626934,935.8780511030452Z" fill="#565656" stroke="#565656" fill-opacity="1" stroke-opacity="1"/><path d="M637.0362239005466,772.8494508804704L858.4282862626934,935.8780511030452L826.5651482238251,785.5641049011138Z" fill="#555555" stroke="#555555" fill-opacity="1" stroke-opacity="1"/><path d="M826.5651482238251,785.5641049011138L858.4282862626934,935.8780511030452L943.4352661943159,917.2921989348108Z" fill="#484848" stroke="#484848" fill-opacity="1" stroke-opacity="1"/><path d="M826.5651482238251,785.5641049011138L943.4352661943159,917.2921989348108L966.213666403091,813.8866466752155Z" fill="#474747" stroke="#474747" fill-opacity="1" stroke-opacity="1"/><path d="M966.213666403091,813.8866466752155L943.4352661943159,917.2921989348108L1161.6570770669214,822.5791331358153Z" fill="#3d3d3d" stroke="#3d3d3d" fill-opacity="1" stroke-opacity="1"/><path d="M1161.6570770669214,822.5791331358153L943.4352661943159,917.2921989348108L1183.1954868873765,1000.4041711651341Z" fill="#323232" stroke="#323232" fill-opacity="1" stroke-opacity="1"/><path d="M1161.6570770669214,822.5791331358153L1183.1954868873765,1000.4041711651341L1328.5551677636508,860.5163440156713Z" fill="#252525" stroke="#252525" fill-opacity="1" stroke-opacity="1"/><path d="M1328.5551677636508,860.5163440156713L1183.1954868873765,1000.4041711651341L1327.1457257664727,1016.5114621861992Z" fill="#1a1a1a" stroke="#1a1a1a" fill-opacity="1" stroke-opacity="1"/><path d="M1328.5551677636508,860.5163440156713L1327.1457257664727,1016.5114621861992L1436.6283743583183,932.3261059485561Z" fill="#121212" stroke="#121212" fill-opacity="1" stroke-opacity="1"/><path d="M1328.5551677636508,860.5163440156713L1436.6283743583183,932.3261059485561L1468.1923143698536,772.58594456045Z" fill="#131313" stroke="#131313" fill-opacity="1" stroke-opacity="1"/><path d="M1468.1923143698536,772.58594456045L1436.6283743583183,932.3261059485561L1597.9920390210596,788.2175980959348Z" fill="#0d0d0d" stroke="#0d0d0d" fill-opacity="1" stroke-opacity="1"/><path d="M1597.9920390210596,788.2175980959348L1436.6283743583183,932.3261059485561L1523.782018008712,1028.1166775930324Z" fill="#070707" stroke="#070707" fill-opacity="1" stroke-opacity="1"/><path d="M1597.9920390210596,788.2175980959348L1523.782018008712,1028.1166775930324L1690.3655109794122,1014.8769893745265Z" fill="#050505" stroke="#050505" fill-opacity="1" stroke-opacity="1"/><path d="M1597.9920390210596,788.2175980959348L1690.3655109794122,1014.8769893745265L1704.5260594895692,794.046639302301Z" fill="#0a0a0a" stroke="#0a0a0a" fill-opacity="1" stroke-opacity="1"/><path d="M1704.5260594895692,794.046639302301L1690.3655109794122,1014.8769893745265L1878.9453364378803,975.9385325087515Z" fill="#060606" stroke="#060606" fill-opacity="1" stroke-opacity="1"/><path d="M1704.5260594895692,794.046639302301L1878.9453364378803,975.9385325087515L1821.3350649014794,786.0241009937315Z" fill="#0b0b0b" stroke="#0b0b0b" fill-opacity="1" stroke-opacity="1"/><path d="M-82.4816394925961,966.8425792329206L199.1594145009937,1031.2450629757393L49.343351584311485,977.5051026776044Z" fill="#7f7f7f" stroke="#7f7f7f" fill-opacity="1" stroke-opacity="1"/><path d="M199.1594145009937,1031.2450629757393L473.60624453781696,1033.1039681674224L366.1348022567195,972.2079939012293Z" fill="#6e6e6e" stroke="#6e6e6e" fill-opacity="1" stroke-opacity="1"/><path d="M473.60624453781696,1033.1039681674224L1523.782018008712,1028.1166775930324L1327.1457257664727,1016.5114621861992Z" fill="#2a2a2a" stroke="#2a2a2a" fill-opacity="1" stroke-opacity="1"/><path d="M473.60624453781696,1033.1039681674224L1327.1457257664727,1016.5114621861992L649.3491419992924,1012.5809377529737Z" fill="#454545" stroke="#454545" fill-opacity="1" stroke-opacity="1"/><path d="M649.3491419992924,1012.5809377529737L1327.1457257664727,1016.5114621861992L1183.1954868873765,1000.4041711651341Z" fill="#2f2f2f" stroke="#2f2f2f" fill-opacity="1" stroke-opacity="1"/><path d="M649.3491419992924,1012.5809377529737L1183.1954868873765,1000.4041711651341L858.4282862626934,935.8780511030452Z" fill="#3f3f3f" stroke="#3f3f3f" fill-opacity="1" stroke-opacity="1"/><path d="M858.4282862626934,935.8780511030452L1183.1954868873765,1000.4041711651341L943.4352661943159,917.2921989348108Z" fill="#383838" stroke="#383838" fill-opacity="1" stroke-opacity="1"/><path d="M1327.1457257664727,1016.5114621861992L1523.782018008712,1028.1166775930324L1436.6283743583183,932.3261059485561Z" fill="#080808" stroke="#080808" fill-opacity="1" stroke-opacity="1"/></g></svg>