<svg width="1680" height="892" xmlns="http://www.w3.org/2000/svg"><g><path d="M-72.0129587392113,-127.50633131313583L-97.61370958828616,254.81663847695103L-42.39831980388793,93.30847538796289Z" fill="#a76518" stroke="#a76518" fill-opacity="1" stroke-opacity="1"/><path d="M-72.0129587392113,-127.50633131313583L-42.39831980388793,93.30847538796289L51.14351133892517,28.66138743466497Z" fill="#965615" stroke="#965615" fill-opacity="1" stroke-opacity="1"/><path d="M-72.0129587392113,-127.50633131313583L51.14351133892517,28.66138743466497L35.46097196522149,-104.83337618154464Z" fill="#854511" stroke="#854511" fill-opacity="1" stroke-opacity="1"/><path d="M-72.0129587392113,-127.50633131313583L35.46097196522149,-104.83337618154464L211.7791664434026,-131.3749338153604Z" fill="#7c3d11" stroke="#7c3d11" fill-opacity="1" stroke-opacity="1"/><path d="M35.46097196522149,-104.83337618154464L51.14351133892517,28.66138743466497L211.7791664434026,-131.3749338153604Z" fill="#92521a" stroke="#92521a" fill-opacity="1" stroke-opacity="1"/><path d="M211.7791664434026,-131.3749338153604L51.14351133892517,28.66138743466497L198.21712597253241,110.71274458871551Z" fill="#b06e25" stroke="#b06e25" fill-opacity="1" stroke-opacity="1"/><path d="M211.7791664434026,-131.3749338153604L198.21712597253241,110.71274458871551L366.8346861193254,-81.94615860431145Z" fill="#af7335" stroke="#af7335" fill-opacity="1" stroke-opacity="1"/><path d="M211.7791664434026,-131.3749338153604L366.8346861193254,-81.94615860431145L699.4186294054169,-88.35146938118413Z" fill="#a77951" stroke="#a77951" fill-opacity="1" stroke-opacity="1"/><path d="M211.7791664434026,-131.3749338153604L699.4186294054169,-88.35146938118413L808.9902968938391,-107.31384594896423Z" fill="#ad856b" stroke="#ad856b" fill-opacity="1" stroke-opacity="1"/><path d="M211.7791664434026,-131.3749338153604L808.9902968938391,-107.31384594896423L935.7191060018871,-119.97022386945895Z" fill="#aa8475" stroke="#aa8475" fill-opacity="1" stroke-opacity="1"/><path d="M211.7791664434026,-131.3749338153604L935.7191060018871,-119.97022386945895L1919.9153833464318,-123.41686455087398Z" fill="#807a70" stroke="#807a70" fill-opacity="1" stroke-opacity="1"/><path d="M366.8346861193254,-81.94615860431145L198.21712597253241,110.71274458871551L342.482447059337,96.64420094919612Z" fill="#ca9145" stroke="#ca9145" fill-opacity="1" stroke-opacity="1"/><path d="M366.8346861193254,-81.94615860431145L342.482447059337,96.64420094919612L507.69060351833366,45.37118122324161Z" fill="#cb9b58" stroke="#cb9b58" fill-opacity="1" stroke-opacity="1"/><path d="M366.8346861193254,-81.94615860431145L507.69060351833366,45.37118122324161L550.2731012294889,-57.726043028071985Z" fill="#c09360" stroke="#c09360" fill-opacity="1" stroke-opacity="1"/><path d="M366.8346861193254,-81.94615860431145L550.2731012294889,-57.726043028071985L699.4186294054169,-88.35146938118413Z" fill="#b68c68" stroke="#b68c68" fill-opacity="1" stroke-opacity="1"/><path d="M550.2731012294889,-57.726043028071985L507.69060351833366,45.37118122324161L719.6174655925236,72.66420726794118Z" fill="#d5ab7a" stroke="#d5ab7a" fill-opacity="1" stroke-opacity="1"/><path d="M550.2731012294889,-57.726043028071985L719.6174655925236,72.66420726794118L699.4186294054169,-88.35146938118413Z" fill="#c7a17e" stroke="#c7a17e" fill-opacity="1" stroke-opacity="1"/><path d="M699.4186294054169,-88.35146938118413L719.6174655925236,72.66420726794118L842.2597656207212,32.322061273291595Z" fill="#cfac8c" stroke="#cfac8c" fill-opacity="1" stroke-opacity="1"/><path d="M699.4186294054169,-88.35146938118413L842.2597656207212,32.322061273291595L808.9902968938391,-107.31384594896423Z" fill="#b99a86" stroke="#b99a86" fill-opacity="1" stroke-opacity="1"/><path d="M808.9902968938391,-107.31384594896423L842.2597656207212,32.322061273291595L935.7191060018871,-119.97022386945895Z" fill="#ac9481" stroke="#ac9481" fill-opacity="1" stroke-opacity="1"/><path d="M935.7191060018871,-119.97022386945895L842.2597656207212,32.322061273291595L1008.460723132826,68.24289592151881Z" fill="#b6a384" stroke="#b6a384" fill-opacity="1" stroke-opacity="1"/><path d="M935.7191060018871,-119.97022386945895L1008.460723132826,68.24289592151881L1091.614171982333,-65.7307145607231Z" fill="#9c9479" stroke="#9c9479" fill-opacity="1" stroke-opacity="1"/><path d="M935.7191060018871,-119.97022386945895L1091.614171982333,-65.7307145607231L1379.092884004037,-82.01856019276597Z" fill="#757b68" stroke="#757b68" fill-opacity="1" stroke-opacity="1"/><path d="M935.7191060018871,-119.97022386945895L1379.092884004037,-82.01856019276597L1733.2659933710916,-111.11964991873222Z" fill="#48584a" stroke="#48584a" fill-opacity="1" stroke-opacity="1"/><path d="M935.7191060018871,-119.97022386945895L1733.2659933710916,-111.11964991873222L1919.9153833464318,-123.41686455087398Z" fill="#2f3c31" stroke="#2f3c31" fill-opacity="1" stroke-opacity="1"/><path d="M1091.614171982333,-65.7307145607231L1008.460723132826,68.24289592151881L1079.8365444513202,69.5647154164692Z" fill="#a7a27a" stroke="#a7a27a" fill-opacity="1" stroke-opacity="1"/><path d="M1091.614171982333,-65.7307145607231L1079.8365444513202,69.5647154164692L1263.6198858334753,-52.00593365184247Z" fill="#8a8f6d" stroke="#8a8f6d" fill-opacity="1" stroke-opacity="1"/><path d="M1091.614171982333,-65.7307145607231L1263.6198858334753,-52.00593365184247L1379.092884004037,-82.01856019276597Z" fill="#66715c" stroke="#66715c" fill-opacity="1" stroke-opacity="1"/><path d="M1263.6198858334753,-52.00593365184247L1079.8365444513202,69.5647154164692L1332.7646607373097,56.55301552311629Z" fill="#868f66" stroke="#868f66" fill-opacity="1" stroke-opacity="1"/><path d="M1263.6198858334753,-52.00593365184247L1332.7646607373097,56.55301552311629L1379.092884004037,-82.01856019276597Z" fill="#647254" stroke="#647254" fill-opacity="1" stroke-opacity="1"/><path d="M1379.092884004037,-82.01856019276597L1332.7646607373097,56.55301552311629L1471.8550093674273,45.1244726526929Z" fill="#64724e" stroke="#64724e" fill-opacity="1" stroke-opacity="1"/><path d="M1379.092884004037,-82.01856019276597L1471.8550093674273,45.1244726526929L1589.6184159555612,-51.953672145926646Z" fill="#4d5c40" stroke="#4d5c40" fill-opacity="1" stroke-opacity="1"/><path d="M1379.092884004037,-82.01856019276597L1589.6184159555612,-51.953672145926646L1733.2659933710916,-111.11964991873222Z" fill="#3b4230" stroke="#3b4230" fill-opacity="1" stroke-opacity="1"/><path d="M1589.6184159555612,-51.953672145926646L1471.8550093674273,45.1244726526929L1634.7181893020052,73.70959587196063Z" fill="#5b6039" stroke="#5b6039" fill-opacity="1" stroke-opacity="1"/><path d="M1589.6184159555612,-51.953672145926646L1634.7181893020052,73.70959587196063L1733.2659933710916,-111.11964991873222Z" fill="#4b4629" stroke="#4b4629" fill-opacity="1" stroke-opacity="1"/><path d="M1733.2659933710916,-111.11964991873222L1634.7181893020052,73.70959587196063L1716.3045105731587,102.84774904783336Z" fill="#5a4f28" stroke="#5a4f28" fill-opacity="1" stroke-opacity="1"/><path d="M1733.2659933710916,-111.11964991873222L1716.3045105731587,102.84774904783336L1871.3271209817512,65.12347034233534Z" fill="#5a441d" stroke="#5a441d" fill-opacity="1" stroke-opacity="1"/><path d="M1733.2659933710916,-111.11964991873222L1871.3271209817512,65.12347034233534L1919.9153833464318,-123.41686455087398Z" fill="#42250e" stroke="#42250e" fill-opacity="1" stroke-opacity="1"/><path d="M1919.9153833464318,-123.41686455087398L1871.3271209817512,65.12347034233534L1925.489335057537,216.19711133791088Z" fill="#644017" stroke="#644017" fill-opacity="1" stroke-opacity="1"/><path d="M-42.39831980388793,93.30847538796289L-97.61370958828616,254.81663847695103L41.84130473333063,201.34970574735812Z" fill="#bf9245" stroke="#bf9245" fill-opacity="1" stroke-opacity="1"/><path d="M-42.39831980388793,93.30847538796289L41.84130473333063,201.34970574735812L51.14351133892517,28.66138743466497Z" fill="#bc7b25" stroke="#bc7b25" fill-opacity="1" stroke-opacity="1"/><path d="M51.14351133892517,28.66138743466497L41.84130473333063,201.34970574735812L198.21712597253241,110.71274458871551Z" fill="#c88830" stroke="#c88830" fill-opacity="1" stroke-opacity="1"/><path d="M198.21712597253241,110.71274458871551L41.84130473333063,201.34970574735812L209.06780181409763,201.04589962168072Z" fill="#d7a551" stroke="#d7a551" fill-opacity="1" stroke-opacity="1"/><path d="M198.21712597253241,110.71274458871551L209.06780181409763,201.04589962168072L342.482447059337,96.64420094919612Z" fill="#dca751" stroke="#dca751" fill-opacity="1" stroke-opacity="1"/><path d="M342.482447059337,96.64420094919612L209.06780181409763,201.04589962168072L432.70188801336593,275.0117275810869Z" fill="#eaca7c" stroke="#eaca7c" fill-opacity="1" stroke-opacity="1"/><path d="M342.482447059337,96.64420094919612L432.70188801336593,275.0117275810869L500.3947536310073,228.64859387851646Z" fill="#f2da94" stroke="#f2da94" fill-opacity="1" stroke-opacity="1"/><path d="M342.482447059337,96.64420094919612L500.3947536310073,228.64859387851646L507.69060351833366,45.37118122324161Z" fill="#eac074" stroke="#eac074" fill-opacity="1" stroke-opacity="1"/><path d="M507.69060351833366,45.37118122324161L500.3947536310073,228.64859387851646L706.4429931694713,176.28041749518349Z" fill="#f4d696" stroke="#f4d696" fill-opacity="1" stroke-opacity="1"/><path d="M507.69060351833366,45.37118122324161L706.4429931694713,176.28041749518349L719.6174655925236,72.66420726794118Z" fill="#edc488" stroke="#edc488" fill-opacity="1" stroke-opacity="1"/><path d="M719.6174655925236,72.66420726794118L706.4429931694713,176.28041749518349L842.2597656207212,32.322061273291595Z" fill="#eac694" stroke="#eac694" fill-opacity="1" stroke-opacity="1"/><path d="M842.2597656207212,32.322061273291595L706.4429931694713,176.28041749518349L849.7570167668492,272.93006260654994Z" fill="#efdeb0" stroke="#efdeb0" fill-opacity="1" stroke-opacity="1"/><path d="M842.2597656207212,32.322061273291595L849.7570167668492,272.93006260654994L949.6930981835438,189.0358245992206Z" fill="#e5ddb0" stroke="#e5ddb0" fill-opacity="1" stroke-opacity="1"/><path d="M842.2597656207212,32.322061273291595L949.6930981835438,189.0358245992206L1008.460723132826,68.24289592151881Z" fill="#d5c18d" stroke="#d5c18d" fill-opacity="1" stroke-opacity="1"/><path d="M1008.460723132826,68.24289592151881L949.6930981835438,189.0358245992206L1103.3903116064682,231.89345895413953Z" fill="#ced4a4" stroke="#ced4a4" fill-opacity="1" stroke-opacity="1"/><path d="M1008.460723132826,68.24289592151881L1103.3903116064682,231.89345895413953L1079.8365444513202,69.5647154164692Z" fill="#c0c28c" stroke="#c0c28c" fill-opacity="1" stroke-opacity="1"/><path d="M1079.8365444513202,69.5647154164692L1103.3903116064682,231.89345895413953L1252.8822932440494,213.23767309418076Z" fill="#b7cc9b" stroke="#b7cc9b" fill-opacity="1" stroke-opacity="1"/><path d="M1079.8365444513202,69.5647154164692L1252.8822932440494,213.23767309418076L1332.7646607373097,56.55301552311629Z" fill="#a0ab75" stroke="#a0ab75" fill-opacity="1" stroke-opacity="1"/><path d="M1332.7646607373097,56.55301552311629L1252.8822932440494,213.23767309418076L1460.231614075595,213.4133778873245Z" fill="#8fab7b" stroke="#8fab7b" fill-opacity="1" stroke-opacity="1"/><path d="M1332.7646607373097,56.55301552311629L1460.231614075595,213.4133778873245L1471.8550093674273,45.1244726526929Z" fill="#7e8c56" stroke="#7e8c56" fill-opacity="1" stroke-opacity="1"/><path d="M1471.8550093674273,45.1244726526929L1460.231614075595,213.4133778873245L1634.7181893020052,73.70959587196063Z" fill="#74814b" stroke="#74814b" fill-opacity="1" stroke-opacity="1"/><path d="M1634.7181893020052,73.70959587196063L1460.231614075595,213.4133778873245L1620.4725903266574,221.17916352540772Z" fill="#7c9161" stroke="#7c9161" fill-opacity="1" stroke-opacity="1"/><path d="M1634.7181893020052,73.70959587196063L1620.4725903266574,221.17916352540772L1716.3045105731587,102.84774904783336Z" fill="#777844" stroke="#777844" fill-opacity="1" stroke-opacity="1"/><path d="M1716.3045105731587,102.84774904783336L1620.4725903266574,221.17916352540772L1700.8321483046095,280.8576388722276Z" fill="#808f63" stroke="#808f63" fill-opacity="1" stroke-opacity="1"/><path d="M1716.3045105731587,102.84774904783336L1700.8321483046095,280.8576388722276L1925.489335057537,216.19711133791088Z" fill="#808155" stroke="#808155" fill-opacity="1" stroke-opacity="1"/><path d="M1716.3045105731587,102.84774904783336L1925.489335057537,216.19711133791088L1871.3271209817512,65.12347034233534Z" fill="#765e2b" stroke="#765e2b" fill-opacity="1" stroke-opacity="1"/><path d="M-97.61370958828616,254.81663847695103L-106.01206959926604,963.5503374774491L-60.30937508939441,686.7409022291565Z" fill="#748b67" stroke="#748b67" fill-opacity="1" stroke-opacity="1"/><path d="M-97.61370958828616,254.81663847695103L-60.30937508939441,686.7409022291565L-77.63224304991556,318.2106488622681Z" fill="#b99e80" stroke="#b99e80" fill-opacity="1" stroke-opacity="1"/><path d="M-97.61370958828616,254.81663847695103L-77.63224304991556,318.2106488622681L41.84130473333063,201.34970574735812Z" fill="#c09e65" stroke="#c09e65" fill-opacity="1" stroke-opacity="1"/><path d="M41.84130473333063,201.34970574735812L-77.63224304991556,318.2106488622681L85.84273929103415,392.0598349495754Z" fill="#c8aa7c" stroke="#c8aa7c" fill-opacity="1" stroke-opacity="1"/><path d="M41.84130473333063,201.34970574735812L85.84273929103415,392.0598349495754L209.06780181409763,201.04589962168072Z" fill="#d5b376" stroke="#d5b376" fill-opacity="1" stroke-opacity="1"/><path d="M209.06780181409763,201.04589962168072L85.84273929103415,392.0598349495754L269.87237186298984,419.77532530940135Z" fill="#dfc190" stroke="#dfc190" fill-opacity="1" stroke-opacity="1"/><path d="M209.06780181409763,201.04589962168072L269.87237186298984,419.77532530940135L432.70188801336593,275.0117275810869Z" fill="#e9d5a4" stroke="#e9d5a4" fill-opacity="1" stroke-opacity="1"/><path d="M432.70188801336593,275.0117275810869L269.87237186298984,419.77532530940135L412.3894849428291,409.65269305762956Z" fill="#efe0bb" stroke="#efe0bb" fill-opacity="1" stroke-opacity="1"/><path d="M432.70188801336593,275.0117275810869L412.3894849428291,409.65269305762956L495.65625870523434,332.30384103383005Z" fill="#f4e8c6" stroke="#f4e8c6" fill-opacity="1" stroke-opacity="1"/><path d="M432.70188801336593,275.0117275810869L495.65625870523434,332.30384103383005L500.3947536310073,228.64859387851646Z" fill="#f6e9bf" stroke="#f6e9bf" fill-opacity="1" stroke-opacity="1"/><path d="M500.3947536310073,228.64859387851646L495.65625870523434,332.30384103383005L659.8953001133775,404.72952880929597Z" fill="#faf3d7" stroke="#faf3d7" fill-opacity="1" stroke-opacity="1"/><path d="M500.3947536310073,228.64859387851646L659.8953001133775,404.72952880929597L706.4429931694713,176.28041749518349Z" fill="#fbf2d3" stroke="#fbf2d3" fill-opacity="1" stroke-opacity="1"/><path d="M706.4429931694713,176.28041749518349L659.8953001133775,404.72952880929597L849.7570167668492,272.93006260654994Z" fill="#faf8e9" stroke="#faf8e9" fill-opacity="1" stroke-opacity="1"/><path d="M849.7570167668492,272.93006260654994L659.8953001133775,404.72952880929597L829.4566489090114,378.93101748376154Z" fill="#f6f9f4" stroke="#f6f9f4" fill-opacity="1" stroke-opacity="1"/><path d="M849.7570167668492,272.93006260654994L829.4566489090114,378.93101748376154L1022.0203148295616,396.3968393928254Z" fill="#e7f6ef" stroke="#e7f6ef" fill-opacity="1" stroke-opacity="1"/><path d="M849.7570167668492,272.93006260654994L1022.0203148295616,396.3968393928254L949.6930981835438,189.0358245992206Z" fill="#e2f3e2" stroke="#e2f3e2" fill-opacity="1" stroke-opacity="1"/><path d="M949.6930981835438,189.0358245992206L1022.0203148295616,396.3968393928254L1103.3903116064682,231.89345895413953Z" fill="#d2ebd4" stroke="#d2ebd4" fill-opacity="1" stroke-opacity="1"/><path d="M1103.3903116064682,231.89345895413953L1022.0203148295616,396.3968393928254L1081.2043028343724,434.55755918632315Z" fill="#c9eae1" stroke="#c9eae1" fill-opacity="1" stroke-opacity="1"/><path d="M1103.3903116064682,231.89345895413953L1081.2043028343724,434.55755918632315L1270.1599766896738,360.6457868357059Z" fill="#b9e2d6" stroke="#b9e2d6" fill-opacity="1" stroke-opacity="1"/><path d="M1103.3903116064682,231.89345895413953L1270.1599766896738,360.6457868357059L1252.8822932440494,213.23767309418076Z" fill="#aed6bd" stroke="#aed6bd" fill-opacity="1" stroke-opacity="1"/><path d="M1252.8822932440494,213.23767309418076L1270.1599766896738,360.6457868357059L1460.231614075595,213.4133778873245Z" fill="#97c4aa" stroke="#97c4aa" fill-opacity="1" stroke-opacity="1"/><path d="M1460.231614075595,213.4133778873245L1270.1599766896738,360.6457868357059L1446.3754780502384,401.35381368592056Z" fill="#8ec0b4" stroke="#8ec0b4" fill-opacity="1" stroke-opacity="1"/><path d="M1460.231614075595,213.4133778873245L1446.3754780502384,401.35381368592056L1603.4352193602317,386.6457411389863Z" fill="#80b1a6" stroke="#80b1a6" fill-opacity="1" stroke-opacity="1"/><path d="M1460.231614075595,213.4133778873245L1603.4352193602317,386.6457411389863L1620.4725903266574,221.17916352540772Z" fill="#80a791" stroke="#80a791" fill-opacity="1" stroke-opacity="1"/><path d="M1620.4725903266574,221.17916352540772L1603.4352193602317,386.6457411389863L1700.8321483046095,280.8576388722276Z" fill="#809f90" stroke="#809f90" fill-opacity="1" stroke-opacity="1"/><path d="M1700.8321483046095,280.8576388722276L1603.4352193602317,386.6457411389863L1780.7347331647873,410.8281094357604Z" fill="#809890" stroke="#809890" fill-opacity="1" stroke-opacity="1"/><path d="M1700.8321483046095,280.8576388722276L1780.7347331647873,410.8281094357604L1873.3365150733562,325.6613460071467Z" fill="#808c82" stroke="#808c82" fill-opacity="1" stroke-opacity="1"/><path d="M1700.8321483046095,280.8576388722276L1873.3365150733562,325.6613460071467L1925.489335057537,216.19711133791088Z" fill="#80836d" stroke="#80836d" fill-opacity="1" stroke-opacity="1"/><path d="M1925.489335057537,216.19711133791088L1873.3365150733562,325.6613460071467L1925.8858818709355,482.11140910240596Z" fill="#80807a" stroke="#80807a" fill-opacity="1" stroke-opacity="1"/><path d="M1925.489335057537,216.19711133791088L1925.8858818709355,482.11140910240596L1928.718831844324,840.8204507996506Z" fill="#6f7f7e" stroke="#6f7f7e" fill-opacity="1" stroke-opacity="1"/><path d="M-77.63224304991556,318.2106488622681L-60.30937508939441,686.7409022291565L-23.140080233918525,525.4272389610038Z" fill="#afa17e" stroke="#afa17e" fill-opacity="1" stroke-opacity="1"/><path d="M-77.63224304991556,318.2106488622681L-23.140080233918525,525.4272389610038L51.48740779869344,483.3536639461543Z" fill="#c0a683" stroke="#c0a683" fill-opacity="1" stroke-opacity="1"/><path d="M-77.63224304991556,318.2106488622681L51.48740779869344,483.3536639461543L85.84273929103415,392.0598349495754Z" fill="#c8ab87" stroke="#c8ab87" fill-opacity="1" stroke-opacity="1"/><path d="M85.84273929103415,392.0598349495754L51.48740779869344,483.3536639461543L189.17665644709643,467.9100175287911Z" fill="#d0b68f" stroke="#d0b68f" fill-opacity="1" stroke-opacity="1"/><path d="M85.84273929103415,392.0598349495754L189.17665644709643,467.9100175287911L269.87237186298984,419.77532530940135Z" fill="#dcc096" stroke="#dcc096" fill-opacity="1" stroke-opacity="1"/><path d="M269.87237186298984,419.77532530940135L189.17665644709643,467.9100175287911L362.7040200545789,555.8743121769168Z" fill="#dfcfa9" stroke="#dfcfa9" fill-opacity="1" stroke-opacity="1"/><path d="M269.87237186298984,419.77532530940135L362.7040200545789,555.8743121769168L412.3894849428291,409.65269305762956Z" fill="#e7dcb9" stroke="#e7dcb9" fill-opacity="1" stroke-opacity="1"/><path d="M412.3894849428291,409.65269305762956L362.7040200545789,555.8743121769168L517.3155163351829,560.7583553723262Z" fill="#e4e6c8" stroke="#e4e6c8" fill-opacity="1" stroke-opacity="1"/><path d="M412.3894849428291,409.65269305762956L517.3155163351829,560.7583553723262L495.65625870523434,332.30384103383005Z" fill="#f2ebd1" stroke="#f2ebd1" fill-opacity="1" stroke-opacity="1"/><path d="M495.65625870523434,332.30384103383005L517.3155163351829,560.7583553723262L659.8953001133775,404.72952880929597Z" fill="#f7f4e1" stroke="#f7f4e1" fill-opacity="1" stroke-opacity="1"/><path d="M659.8953001133775,404.72952880929597L517.3155163351829,560.7583553723262L707.987998218631,538.5599476309728Z" fill="#eff6ea" stroke="#eff6ea" fill-opacity="1" stroke-opacity="1"/><path d="M659.8953001133775,404.72952880929597L707.987998218631,538.5599476309728L829.4566489090114,378.93101748376154Z" fill="#f6faf8" stroke="#f6faf8" fill-opacity="1" stroke-opacity="1"/><path d="M829.4566489090114,378.93101748376154L707.987998218631,538.5599476309728L809.4411037532597,570.6636606379958Z" fill="#edf9f9" stroke="#edf9f9" fill-opacity="1" stroke-opacity="1"/><path d="M829.4566489090114,378.93101748376154L809.4411037532597,570.6636606379958L933.3012745877702,503.1829464039043Z" fill="#e5f7f6" stroke="#e5f7f6" fill-opacity="1" stroke-opacity="1"/><path d="M829.4566489090114,378.93101748376154L933.3012745877702,503.1829464039043L1022.0203148295616,396.3968393928254Z" fill="#e1f5f2" stroke="#e1f5f2" fill-opacity="1" stroke-opacity="1"/><path d="M1022.0203148295616,396.3968393928254L933.3012745877702,503.1829464039043L1081.2043028343724,434.55755918632315Z" fill="#d0efeb" stroke="#d0efeb" fill-opacity="1" stroke-opacity="1"/><path d="M1081.2043028343724,434.55755918632315L933.3012745877702,503.1829464039043L1167.7881233628968,504.6498731142555Z" fill="#c4ebe6" stroke="#c4ebe6" fill-opacity="1" stroke-opacity="1"/><path d="M1081.2043028343724,434.55755918632315L1167.7881233628968,504.6498731142555L1270.1599766896738,360.6457868357059Z" fill="#b2dfd9" stroke="#b2dfd9" fill-opacity="1" stroke-opacity="1"/><path d="M1270.1599766896738,360.6457868357059L1167.7881233628968,504.6498731142555L1239.9319919745535,485.6124877189298Z" fill="#a5d7d2" stroke="#a5d7d2" fill-opacity="1" stroke-opacity="1"/><path d="M1270.1599766896738,360.6457868357059L1239.9319919745535,485.6124877189298L1446.3754780502384,401.35381368592056Z" fill="#97cac6" stroke="#97cac6" fill-opacity="1" stroke-opacity="1"/><path d="M1446.3754780502384,401.35381368592056L1239.9319919745535,485.6124877189298L1447.975484988125,494.6678241278119Z" fill="#8ac2be" stroke="#8ac2be" fill-opacity="1" stroke-opacity="1"/><path d="M1446.3754780502384,401.35381368592056L1447.975484988125,494.6678241278119L1580.971815259567,510.3887629193554Z" fill="#7ab3af" stroke="#7ab3af" fill-opacity="1" stroke-opacity="1"/><path d="M1446.3754780502384,401.35381368592056L1580.971815259567,510.3887629193554L1603.4352193602317,386.6457411389863Z" fill="#7caca8" stroke="#7caca8" fill-opacity="1" stroke-opacity="1"/><path d="M1603.4352193602317,386.6457411389863L1580.971815259567,510.3887629193554L1780.7347331647873,410.8281094357604Z" fill="#7c9e9a" stroke="#7c9e9a" fill-opacity="1" stroke-opacity="1"/><path d="M1780.7347331647873,410.8281094357604L1580.971815259567,510.3887629193554L1701.7554357170295,576.5190813246135Z" fill="#759995" stroke="#759995" fill-opacity="1" stroke-opacity="1"/><path d="M1780.7347331647873,410.8281094357604L1701.7554357170295,576.5190813246135L1839.8360822430318,634.9129284194063Z" fill="#638b84" stroke="#638b84" fill-opacity="1" stroke-opacity="1"/><path d="M1780.7347331647873,410.8281094357604L1839.8360822430318,634.9129284194063L1925.8858818709355,482.11140910240596Z" fill="#71847f" stroke="#71847f" fill-opacity="1" stroke-opacity="1"/><path d="M1780.7347331647873,410.8281094357604L1925.8858818709355,482.11140910240596L1873.3365150733562,325.6613460071467Z" fill="#7f8380" stroke="#7f8380" fill-opacity="1" stroke-opacity="1"/><path d="M-23.140080233918525,525.4272389610038L-60.30937508939441,686.7409022291565L101.36748524977038,685.6917328814532Z" fill="#82986d" stroke="#82986d" fill-opacity="1" stroke-opacity="1"/><path d="M-23.140080233918525,525.4272389610038L101.36748524977038,685.6917328814532L51.48740779869344,483.3536639461543Z" fill="#a5aa80" stroke="#a5aa80" fill-opacity="1" stroke-opacity="1"/><path d="M51.48740779869344,483.3536639461543L101.36748524977038,685.6917328814532L189.17665644709643,467.9100175287911Z" fill="#b7b489" stroke="#b7b489" fill-opacity="1" stroke-opacity="1"/><path d="M189.17665644709643,467.9100175287911L101.36748524977038,685.6917328814532L225.8379625168118,647.6072659021524Z" fill="#a7b787" stroke="#a7b787" fill-opacity="1" stroke-opacity="1"/><path d="M189.17665644709643,467.9100175287911L225.8379625168118,647.6072659021524L362.7040200545789,555.8743121769168Z" fill="#c2ca9e" stroke="#c2ca9e" fill-opacity="1" stroke-opacity="1"/><path d="M362.7040200545789,555.8743121769168L225.8379625168118,647.6072659021524L411.63060140054034,678.4167315541381Z" fill="#aaca9f" stroke="#aaca9f" fill-opacity="1" stroke-opacity="1"/><path d="M362.7040200545789,555.8743121769168L411.63060140054034,678.4167315541381L517.3155163351829,560.7583553723262Z" fill="#bee1bb" stroke="#bee1bb" fill-opacity="1" stroke-opacity="1"/><path d="M517.3155163351829,560.7583553723262L411.63060140054034,678.4167315541381L500.8540908294987,695.6745049231872Z" fill="#acd6b6" stroke="#acd6b6" fill-opacity="1" stroke-opacity="1"/><path d="M517.3155163351829,560.7583553723262L500.8540908294987,695.6745049231872L625.0042474817267,716.4213312959581Z" fill="#aad9bf" stroke="#aad9bf" fill-opacity="1" stroke-opacity="1"/><path d="M517.3155163351829,560.7583553723262L625.0042474817267,716.4213312959581L707.987998218631,538.5599476309728Z" fill="#c2edd9" stroke="#c2edd9" fill-opacity="1" stroke-opacity="1"/><path d="M707.987998218631,538.5599476309728L625.0042474817267,716.4213312959581L809.4411037532597,570.6636606379958Z" fill="#c1f0e5" stroke="#c1f0e5" fill-opacity="1" stroke-opacity="1"/><path d="M809.4411037532597,570.6636606379958L625.0042474817267,716.4213312959581L863.023154411068,673.3234233446937Z" fill="#aae1db" stroke="#aae1db" fill-opacity="1" stroke-opacity="1"/><path d="M809.4411037532597,570.6636606379958L863.023154411068,673.3234233446937L933.3012745877702,503.1829464039043Z" fill="#bdf2ea" stroke="#bdf2ea" fill-opacity="1" stroke-opacity="1"/><path d="M933.3012745877702,503.1829464039043L863.023154411068,673.3234233446937L1026.153630158361,696.563732511358Z" fill="#a1e6dc" stroke="#a1e6dc" fill-opacity="1" stroke-opacity="1"/><path d="M933.3012745877702,503.1829464039043L1026.153630158361,696.563732511358L1167.7881233628968,504.6498731142555Z" fill="#a7e9df" stroke="#a7e9df" fill-opacity="1" stroke-opacity="1"/><path d="M1167.7881233628968,504.6498731142555L1026.153630158361,696.563732511358L1078.5435887471347,725.5232123240079Z" fill="#7cd4c8" stroke="#7cd4c8" fill-opacity="1" stroke-opacity="1"/><path d="M1167.7881233628968,504.6498731142555L1078.5435887471347,725.5232123240079L1314.4639910376752,691.8471613519167Z" fill="#6ac9bd" stroke="#6ac9bd" fill-opacity="1" stroke-opacity="1"/><path d="M1167.7881233628968,504.6498731142555L1314.4639910376752,691.8471613519167L1239.9319919745535,485.6124877189298Z" fill="#82d1c8" stroke="#82d1c8" fill-opacity="1" stroke-opacity="1"/><path d="M1239.9319919745535,485.6124877189298L1314.4639910376752,691.8471613519167L1447.975484988125,494.6678241278119Z" fill="#73c5bc" stroke="#73c5bc" fill-opacity="1" stroke-opacity="1"/><path d="M1447.975484988125,494.6678241278119L1314.4639910376752,691.8471613519167L1482.9964905406646,645.5660085449688Z" fill="#51b3a8" stroke="#51b3a8" fill-opacity="1" stroke-opacity="1"/><path d="M1447.975484988125,494.6678241278119L1482.9964905406646,645.5660085449688L1580.971815259567,510.3887629193554Z" fill="#5faea6" stroke="#5faea6" fill-opacity="1" stroke-opacity="1"/><path d="M1580.971815259567,510.3887629193554L1482.9964905406646,645.5660085449688L1701.7554357170295,576.5190813246135Z" fill="#54a298" stroke="#54a298" fill-opacity="1" stroke-opacity="1"/><path d="M1701.7554357170295,576.5190813246135L1482.9964905406646,645.5660085449688L1539.083942238612,734.4297773659173Z" fill="#329086" stroke="#329086" fill-opacity="1" stroke-opacity="1"/><path d="M1701.7554357170295,576.5190813246135L1539.083942238612,734.4297773659173L1775.25415867947,733.7942326022737Z" fill="#257a70" stroke="#257a70" fill-opacity="1" stroke-opacity="1"/><path d="M1701.7554357170295,576.5190813246135L1775.25415867947,733.7942326022737L1839.8360822430318,634.9129284194063Z" fill="#34786d" stroke="#34786d" fill-opacity="1" stroke-opacity="1"/><path d="M1925.8858818709355,482.11140910240596L1839.8360822430318,634.9129284194063L1928.718831844324,840.8204507996506Z" fill="#326862" stroke="#326862" fill-opacity="1" stroke-opacity="1"/><path d="M-60.30937508939441,686.7409022291565L-106.01206959926604,963.5503374774491L-46.82676174403143,802.3664388349927Z" fill="#4b5531" stroke="#4b5531" fill-opacity="1" stroke-opacity="1"/><path d="M-60.30937508939441,686.7409022291565L-46.82676174403143,802.3664388349927L101.36748524977038,685.6917328814532Z" fill="#617951" stroke="#617951" fill-opacity="1" stroke-opacity="1"/><path d="M101.36748524977038,685.6917328814532L-46.82676174403143,802.3664388349927L130.66358858132344,869.9963664850734Z" fill="#616f45" stroke="#616f45" fill-opacity="1" stroke-opacity="1"/><path d="M101.36748524977038,685.6917328814532L130.66358858132344,869.9963664850734L237.25293787919054,856.880712786129Z" fill="#6c7648" stroke="#6c7648" fill-opacity="1" stroke-opacity="1"/><path d="M101.36748524977038,685.6917328814532L237.25293787919054,856.880712786129L225.8379625168118,647.6072659021524Z" fill="#7a9062" stroke="#7a9062" fill-opacity="1" stroke-opacity="1"/><path d="M225.8379625168118,647.6072659021524L237.25293787919054,856.880712786129L411.63060140054034,678.4167315541381Z" fill="#83a378" stroke="#83a378" fill-opacity="1" stroke-opacity="1"/><path d="M411.63060140054034,678.4167315541381L237.25293787919054,856.880712786129L338.4924086943334,882.7374988523933Z" fill="#7b9269" stroke="#7b9269" fill-opacity="1" stroke-opacity="1"/><path d="M411.63060140054034,678.4167315541381L338.4924086943334,882.7374988523933L534.0246438105672,822.1981556949556Z" fill="#85a381" stroke="#85a381" fill-opacity="1" stroke-opacity="1"/><path d="M411.63060140054034,678.4167315541381L534.0246438105672,822.1981556949556L500.8540908294987,695.6745049231872Z" fill="#90bb9d" stroke="#90bb9d" fill-opacity="1" stroke-opacity="1"/><path d="M500.8540908294987,695.6745049231872L534.0246438105672,822.1981556949556L625.0042474817267,716.4213312959581Z" fill="#93bfa6" stroke="#93bfa6" fill-opacity="1" stroke-opacity="1"/><path d="M625.0042474817267,716.4213312959581L534.0246438105672,822.1981556949556L695.349654614224,810.550148634644Z" fill="#8eb6a5" stroke="#8eb6a5" fill-opacity="1" stroke-opacity="1"/><path d="M625.0042474817267,716.4213312959581L695.349654614224,810.550148634644L863.023154411068,673.3234233446937Z" fill="#95c8c2" stroke="#95c8c2" fill-opacity="1" stroke-opacity="1"/><path d="M863.023154411068,673.3234233446937L695.349654614224,810.550148634644L765.2752271607803,855.0824593755025Z" fill="#8bbab6" stroke="#8bbab6" fill-opacity="1" stroke-opacity="1"/><path d="M863.023154411068,673.3234233446937L765.2752271607803,855.0824593755025L955.2896792577163,805.7268006444876Z" fill="#80b8b2" stroke="#80b8b2" fill-opacity="1" stroke-opacity="1"/><path d="M863.023154411068,673.3234233446937L955.2896792577163,805.7268006444876L1026.153630158361,696.563732511358Z" fill="#7cc5bd" stroke="#7cc5bd" fill-opacity="1" stroke-opacity="1"/><path d="M1026.153630158361,696.563732511358L955.2896792577163,805.7268006444876L1078.5435887471347,725.5232123240079Z" fill="#6cbab1" stroke="#6cbab1" fill-opacity="1" stroke-opacity="1"/><path d="M1078.5435887471347,725.5232123240079L955.2896792577163,805.7268006444876L1112.2923144876722,840.2949226080484Z" fill="#60a9a0" stroke="#60a9a0" fill-opacity="1" stroke-opacity="1"/><path d="M1078.5435887471347,725.5232123240079L1112.2923144876722,840.2949226080484L1230.1403242537965,801.6666473469968Z" fill="#4ea197" stroke="#4ea197" fill-opacity="1" stroke-opacity="1"/><path d="M1078.5435887471347,725.5232123240079L1230.1403242537965,801.6666473469968L1314.4639910376752,691.8471613519167Z" fill="#48a79d" stroke="#48a79d" fill-opacity="1" stroke-opacity="1"/><path d="M1314.4639910376752,691.8471613519167L1230.1403242537965,801.6666473469968L1416.1556210074987,859.5577939663101Z" fill="#2b8980" stroke="#2b8980" fill-opacity="1" stroke-opacity="1"/><path d="M1314.4639910376752,691.8471613519167L1416.1556210074987,859.5577939663101L1482.9964905406646,645.5660085449688Z" fill="#278d84" stroke="#278d84" fill-opacity="1" stroke-opacity="1"/><path d="M1482.9964905406646,645.5660085449688L1416.1556210074987,859.5577939663101L1539.083942238612,734.4297773659173Z" fill="#1b8077" stroke="#1b8077" fill-opacity="1" stroke-opacity="1"/><path d="M1539.083942238612,734.4297773659173L1416.1556210074987,859.5577939663101L1609.2927005964964,825.1403162798548Z" fill="#106860" stroke="#106860" fill-opacity="1" stroke-opacity="1"/><path d="M1539.083942238612,734.4297773659173L1609.2927005964964,825.1403162798548L1775.25415867947,733.7942326022737Z" fill="#16655c" stroke="#16655c" fill-opacity="1" stroke-opacity="1"/><path d="M1775.25415867947,733.7942326022737L1609.2927005964964,825.1403162798548L1755.6845333931358,794.3221935577872Z" fill="#13554d" stroke="#13554d" fill-opacity="1" stroke-opacity="1"/><path d="M1775.25415867947,733.7942326022737L1755.6845333931358,794.3221935577872L1928.718831844324,840.8204507996506Z" fill="#12463d" stroke="#12463d" fill-opacity="1" stroke-opacity="1"/><path d="M1775.25415867947,733.7942326022737L1928.718831844324,840.8204507996506L1839.8360822430318,634.9129284194063Z" fill="#1a5249" stroke="#1a5249" fill-opacity="1" stroke-opacity="1"/><path d="M-46.82676174403143,802.3664388349927L-106.01206959926604,963.5503374774491L130.66358858132344,869.9963664850734Z" fill="#4b4b24" stroke="#4b4b24" fill-opacity="1" stroke-opacity="1"/><path d="M130.66358858132344,869.9963664850734L-106.01206959926604,963.5503374774491L123.11243348785777,988.9559078397456Z" fill="#4d4016" stroke="#4d4016" fill-opacity="1" stroke-opacity="1"/><path d="M130.66358858132344,869.9963664850734L123.11243348785777,988.9559078397456L237.25293787919054,856.880712786129Z" fill="#5e592c" stroke="#5e592c" fill-opacity="1" stroke-opacity="1"/><path d="M237.25293787919054,856.880712786129L123.11243348785777,988.9559078397456L282.64824501975795,966.7452297551819Z" fill="#62572a" stroke="#62572a" fill-opacity="1" stroke-opacity="1"/><path d="M237.25293787919054,856.880712786129L282.64824501975795,966.7452297551819L338.4924086943334,882.7374988523933Z" fill="#6a6e44" stroke="#6a6e44" fill-opacity="1" stroke-opacity="1"/><path d="M338.4924086943334,882.7374988523933L282.64824501975795,966.7452297551819L332.50902147590705,980.4656180054429Z" fill="#6b673f" stroke="#6b673f" fill-opacity="1" stroke-opacity="1"/><path d="M338.4924086943334,882.7374988523933L332.50902147590705,980.4656180054429L499.40769213225207,950.2344061558598Z" fill="#71744f" stroke="#71744f" fill-opacity="1" stroke-opacity="1"/><path d="M338.4924086943334,882.7374988523933L499.40769213225207,950.2344061558598L534.0246438105672,822.1981556949556Z" fill="#798b6b" stroke="#798b6b" fill-opacity="1" stroke-opacity="1"/><path d="M534.0246438105672,822.1981556949556L499.40769213225207,950.2344061558598L720.952500313385,915.8767416942277Z" fill="#7e937f" stroke="#7e937f" fill-opacity="1" stroke-opacity="1"/><path d="M534.0246438105672,822.1981556949556L720.952500313385,915.8767416942277L695.349654614224,810.550148634644Z" fill="#85a395" stroke="#85a395" fill-opacity="1" stroke-opacity="1"/><path d="M695.349654614224,810.550148634644L720.952500313385,915.8767416942277L765.2752271607803,855.0824593755025Z" fill="#83a39c" stroke="#83a39c" fill-opacity="1" stroke-opacity="1"/><path d="M765.2752271607803,855.0824593755025L720.952500313385,915.8767416942277L810.8105002025097,981.2377517066224Z" fill="#78928d" stroke="#78928d" fill-opacity="1" stroke-opacity="1"/><path d="M765.2752271607803,855.0824593755025L810.8105002025097,981.2377517066224L919.7362818492251,975.4300545622497Z" fill="#708a85" stroke="#708a85" fill-opacity="1" stroke-opacity="1"/><path d="M765.2752271607803,855.0824593755025L919.7362818492251,975.4300545622497L955.2896792577163,805.7268006444876Z" fill="#709a94" stroke="#709a94" fill-opacity="1" stroke-opacity="1"/><path d="M955.2896792577163,805.7268006444876L919.7362818492251,975.4300545622497L1075.59096582365,999.5228639145049Z" fill="#5a867f" stroke="#5a867f" fill-opacity="1" stroke-opacity="1"/><path d="M955.2896792577163,805.7268006444876L1075.59096582365,999.5228639145049L1112.2923144876722,840.2949226080484Z" fill="#538e86" stroke="#538e86" fill-opacity="1" stroke-opacity="1"/><path d="M1112.2923144876722,840.2949226080484L1075.59096582365,999.5228639145049L1251.4579800640263,1027.324044792953Z" fill="#3b6f66" stroke="#3b6f66" fill-opacity="1" stroke-opacity="1"/><path d="M1112.2923144876722,840.2949226080484L1251.4579800640263,1027.324044792953L1230.1403242537965,801.6666473469968Z" fill="#357b72" stroke="#357b72" fill-opacity="1" stroke-opacity="1"/><path d="M1230.1403242537965,801.6666473469968L1251.4579800640263,1027.324044792953L1416.1556210074987,859.5577939663101Z" fill="#1f6b63" stroke="#1f6b63" fill-opacity="1" stroke-opacity="1"/><path d="M1416.1556210074987,859.5577939663101L1251.4579800640263,1027.324044792953L1397.6830511836556,1020.4748766294686Z" fill="#144d46" stroke="#144d46" fill-opacity="1" stroke-opacity="1"/><path d="M1416.1556210074987,859.5577939663101L1397.6830511836556,1020.4748766294686L1623.58761099674,919.4675848351899Z" fill="#034840" stroke="#034840" fill-opacity="1" stroke-opacity="1"/><path d="M1416.1556210074987,859.5577939663101L1623.58761099674,919.4675848351899L1609.2927005964964,825.1403162798548Z" fill="#07524a" stroke="#07524a" fill-opacity="1" stroke-opacity="1"/><path d="M1609.2927005964964,825.1403162798548L1623.58761099674,919.4675848351899L1755.6845333931358,794.3221935577872Z" fill="#0a4a42" stroke="#0a4a42" fill-opacity="1" stroke-opacity="1"/><path d="M1755.6845333931358,794.3221935577872L1623.58761099674,919.4675848351899L1679.5631864855131,1006.1810739454131Z" fill="#02342c" stroke="#02342c" fill-opacity="1" stroke-opacity="1"/><path d="M1755.6845333931358,794.3221935577872L1679.5631864855131,1006.1810739454131L1881.4601828078223,937.2594554141948Z" fill="#012820" stroke="#012820" fill-opacity="1" stroke-opacity="1"/><path d="M1755.6845333931358,794.3221935577872L1881.4601828078223,937.2594554141948L1928.718831844324,840.8204507996506Z" fill="#092d25" stroke="#092d25" fill-opacity="1" stroke-opacity="1"/><path d="M123.11243348785777,988.9559078397456L1251.4579800640263,1027.324044792953L332.50902147590705,980.4656180054429Z" fill="#7b7563" stroke="#7b7563" fill-opacity="1" stroke-opacity="1"/><path d="M123.11243348785777,988.9559078397456L332.50902147590705,980.4656180054429L282.64824501975795,966.7452297551819Z" fill="#655025" stroke="#655025" fill-opacity="1" stroke-opacity="1"/><path d="M332.50902147590705,980.4656180054429L1251.4579800640263,1027.324044792953L810.8105002025097,981.2377517066224Z" fill="#747979" stroke="#747979" fill-opacity="1" stroke-opacity="1"/><path d="M332.50902147590705,980.4656180054429L810.8105002025097,981.2377517066224L499.40769213225207,950.2344061558598Z" fill="#7a7a63" stroke="#7a7a63" fill-opacity="1" stroke-opacity="1"/><path d="M499.40769213225207,950.2344061558598L810.8105002025097,981.2377517066224L720.952500313385,915.8767416942277Z" fill="#7b867c" stroke="#7b867c" fill-opacity="1" stroke-opacity="1"/><path d="M810.8105002025097,981.2377517066224L1251.4579800640263,1027.324044792953L1075.59096582365,999.5228639145049Z" fill="#4e6d68" stroke="#4e6d68" fill-opacity="1" stroke-opacity="1"/><path d="M810.8105002025097,981.2377517066224L1075.59096582365,999.5228639145049L919.7362818492251,975.4300545622497Z" fill="#637873" stroke="#637873" fill-opacity="1" stroke-opacity="1"/><path d="M1397.6830511836556,1020.4748766294686L1679.5631864855131,1006.1810739454131L1623.58761099674,919.4675848351899Z" fill="#002e26" stroke="#002e26" fill-opacity="1" stroke-opacity="1"/></g></svg>